<svg viewBox="0 0 353 239" fill="none" xmlns="http://www.w3.org/2000/svg">
    <path opacity="0.5" d="M13.8242 127.524C27.1425 103.07 54.1067 84.403 60.8204 81.4009C104.269 61.9146 144.169 24.8525 188.272 9.02337C232.376 -6.80579 282.811 0.726696 331.062 64.2617C356.935 98.3763 358.791 132.436 338.704 153.342C263.707 231.56 174.681 257.105 80.6887 224.136C62.1304 217.641 43.2992 208.798 24.4133 191.168C1.26999 169.662 3.34416 146.846 13.8242 127.524Z" fill="#FEAD62"/>
    <path d="M15.0796 102.579C32.0004 80.4729 61.4754 66.1175 68.5712 64.1525C114.476 51.4892 159.562 20.9225 205.575 12.0254C251.589 3.12835 300.277 18.1933 338.322 88.3329C358.736 125.995 355.352 159.946 332.318 177.522C246.185 243.404 154.322 255.14 66.4425 208.252C49.085 198.973 31.7821 187.402 15.8437 167.097C-3.75169 142.316 1.76122 120.046 15.0796 102.579Z" fill="url(#paint0_linear)"/>
    <path d="M194.113 123.485L191.002 107.765L189.309 99.1405C187.836 87.3505 186.198 66.3905 187.235 54.6005C189.037 34.35 169.932 18.7938 150.664 19.7217C131.124 20.7042 122.336 35.005 118.078 52.6354C111.364 80.6367 126.539 102.033 116.55 122.611C116.222 123.321 116.714 124.194 117.532 124.194C123.7 124.358 144.442 124.085 144.442 124.085V84.3484C144.442 84.3484 147.226 88.6605 151.756 93.9005L145.315 131.235L194.113 123.485Z" fill="black"/>
    <path d="M159.889 102.252L189.146 115.188C195.75 118.081 200.717 123.921 202.682 131.017L230.356 230.577H87.8937C77.4137 230.577 69.1716 221.298 70.2087 210.545L77.7412 133.2C78.6145 124.085 84.4003 116.28 92.6424 112.841L120.207 101.542L159.889 102.252Z" fill="#0B4870"/>
    <path d="M156.505 230.577V207.761L112.402 203.231L118.897 165.732L116.823 116.989L101.43 108.583C101.43 108.583 81.9441 107.874 77.7412 133.2C76.8132 146.082 70.2087 210.545 70.2087 210.545C70.2087 210.545 68.5166 229.485 87.8937 230.577C87.4024 231.287 151.047 230.577 151.047 230.577H156.505Z" fill="#0B4870"/>
    <path d="M158.797 102.961C160.271 103.289 174.299 109.839 176.155 118.845C178.011 127.851 169.332 142.207 145.916 132.545C144.278 132.6 158.797 102.961 158.797 102.961Z" fill="#FFEC3C"/>
    <path d="M128.285 66.7179C128.285 66.7179 141.058 63.6067 147.28 41.8825C146.571 43.6292 129.322 41.555 128.285 66.7179Z" fill="#064A6F"/>
    <path d="M163.765 89.8067L159.616 116.007C159.616 116.007 143.732 131.89 136.855 113.223C134.781 98.7583 140.785 82.8746 140.785 82.8746L163.765 89.8067Z" fill="#FCD2B1"/>
    <path d="M163.765 89.9704C163.765 89.9704 164.638 102.415 142.641 97.6121C137.892 90.6254 140.294 76.9796 140.294 76.9796L163.765 89.9704Z" fill="#EFBD9C"/>
    <path d="M133.798 64.1525C133.798 64.1525 133.416 87.8417 151.756 91.2805C157.487 92.8088 177.356 93.9551 179.266 66.8271C179.648 43.9021 179.266 48.105 179.266 48.105H138.001L133.798 64.1525Z" fill="#FCD2B1"/>
    <path d="M156.45 211.091C156.45 211.091 170.915 213.929 168.841 225.228C160.926 225.61 155.25 225.446 155.25 225.446L156.45 211.091Z" fill="#FCD2B1"/>
    <path d="M156.56 170.317C157.976 170.317 159.125 169.169 159.125 167.752C159.125 166.335 157.976 165.186 156.56 165.186C155.143 165.186 153.994 166.335 153.994 167.752C153.994 169.169 155.143 170.317 156.56 170.317Z" fill="#FFEC3C"/>
    <path d="M156.723 197.936C158.14 197.936 159.289 196.788 159.289 195.371C159.289 193.954 158.14 192.805 156.723 192.805C155.306 192.805 154.158 193.954 154.158 195.371C154.158 196.788 155.306 197.936 156.723 197.936Z" fill="#FFEC3C"/>
    <path d="M156.45 211.091L112.238 199.847L117.805 172.555L121.681 172.282L115.458 198.155L156.614 210.545L156.45 211.091Z" fill="#07354F"/>
    <path d="M128.176 37.0246C117.205 46.8496 117.096 60.8775 116.604 74.5233C116.332 81.2917 116.004 88.3875 113.384 94.7192C110.491 101.76 104.596 106.946 100.612 113.332C96.9545 119.227 96.3541 128.452 102.413 131.89C105.36 133.583 109.127 133.364 112.019 135.111C115.567 137.24 116.932 141.879 116.768 146.028C116.604 150.176 115.24 154.215 114.639 158.309C113.602 165.841 116.495 175.066 123.864 176.867C128.777 178.068 133.744 175.612 138.165 173.265C143.514 170.372 148.863 167.533 153.721 163.931C157.815 160.929 161.581 157.326 163.71 152.687C167.64 144.008 164.692 133.801 160.162 125.395C155.632 117.044 149.573 109.402 146.734 100.341C142.095 85.7129 146.571 69.9383 148.044 54.655C148.59 48.6508 148.59 42.1008 145.097 37.1338C137.892 26.8175 121.408 34.4592 123.537 46.5221" fill="black"/>
    <path d="M319.709 229.868H32.0549V237.455H319.709V229.868Z" fill="black"/>
    <path d="M14.4791 83.9663L41.7708 80.6367" stroke="#155263" stroke-width="0.5" stroke-miterlimit="10"/>
    <path d="M63.047 32.0643L0.834595 52.3851L15.3083 96.6965L77.5207 76.3758L63.047 32.0643Z" fill="#C9C9C9"/>
    <path d="M63.001 32.0627L0.840454 52.3666L2.07767 56.1543L64.2382 35.8505L63.001 32.0627Z" fill="#FFEC3C"/>
    <path d="M4.21743 54.4367C4.66962 54.4367 5.03618 54.0701 5.03618 53.6179C5.03618 53.1658 4.66962 52.7992 4.21743 52.7992C3.76525 52.7992 3.39868 53.1658 3.39868 53.6179C3.39868 54.0701 3.76525 54.4367 4.21743 54.4367Z" fill="#F7F7F7"/>
    <path d="M7.11038 53.5088C7.56256 53.5088 7.92913 53.1422 7.92913 52.69C7.92913 52.2378 7.56256 51.8713 7.11038 51.8713C6.65819 51.8713 6.29163 52.2378 6.29163 52.69C6.29163 53.1422 6.65819 53.5088 7.11038 53.5088Z" fill="#F7F7F7"/>
    <path d="M9.8395 52.6354C10.2917 52.6354 10.6583 52.2689 10.6583 51.8167C10.6583 51.3645 10.2917 50.9979 9.8395 50.9979C9.38732 50.9979 9.02075 51.3645 9.02075 51.8167C9.02075 52.2689 9.38732 52.6354 9.8395 52.6354Z" fill="#C9C9C9"/>
    <path d="M62.7601 39.2267L5.32129 57.9882L16.9985 93.7383L74.4374 74.9767L62.7601 39.2267Z" stroke="#FEAD62" stroke-miterlimit="10"/>
    <path d="M12.2411 69.5563L9.12988 60.0042L9.29363 59.9496L35.5482 51.3801L38.6595 60.9867L38.4957 61.0413L12.2411 69.5563ZM9.51197 60.168L12.4595 69.1742L38.2774 60.7684L35.3299 51.7621L9.51197 60.168Z" fill="black"/>
    <path d="M47.3383 80.1454L47.2837 79.9817L41.3887 61.9146L41.5524 61.86L63.5495 54.655L63.6041 54.8188L69.4991 72.8859L69.3353 72.9405L47.3383 80.1454ZM41.7708 62.1875L47.502 79.8179L69.0624 72.7767L63.3312 55.1463L41.7708 62.1875Z" fill="black"/>
    <path d="M13.3874 71.958L13.2782 71.685L39.369 63.17L39.4782 63.443L13.3874 71.958Z" fill="black"/>
    <path d="M40.9519 59.6767L40.8973 59.3492L62.5123 52.308L62.6215 52.5809L40.9519 59.6767Z" fill="black"/>
    <path d="M40.0241 56.6746L39.9149 56.4017L61.5299 49.3058L61.6391 49.6333L40.0241 56.6746Z" fill="black"/>
    <path d="M39.0961 53.8363L38.9869 53.5088L60.6019 46.4675L60.7111 46.7404L39.0961 53.8363Z" fill="black"/>
    <path d="M38.2228 51.2163L38.1136 50.8888L59.7286 43.8475L59.8378 44.1205L38.2228 51.2163Z" fill="black"/>
    <path d="M14.3153 74.8509L14.2062 74.5234L40.297 66.0084L40.4062 66.2813L14.3153 74.8509Z" fill="black"/>
    <path d="M15.1886 77.5255L15.0795 77.198L41.1703 68.683L41.2795 69.0105L15.1886 77.5255Z" fill="black"/>
    <path d="M16.1166 80.3092L16.0074 80.0363L42.0983 71.4667L42.2074 71.7942L16.1166 80.3092Z" fill="black"/>
    <path d="M17.0445 83.1475L16.9353 82.8746L43.0261 74.3596L43.1353 74.6325L17.0445 83.1475Z" fill="black"/>
    <path d="M17.9178 85.8221L17.8086 85.5492L43.8994 77.0342L44.0086 77.3072L17.9178 85.8221Z" fill="black"/>
    <path d="M18.9549 88.6605L18.8457 88.3876L44.9365 79.818L44.9911 80.1455L18.9549 88.6605Z" fill="black"/>
    <path d="M63.047 32.0643L0.834595 52.3851L15.3083 96.6965L77.5207 76.3758L63.047 32.0643Z" stroke="black" stroke-miterlimit="10"/>
    <path d="M102.195 12.735H99.1379V9.67834H97.8825V12.735H94.8258V13.9904H97.8825V17.0471H99.1379V13.9904H102.195V12.735Z" fill="#FFEC3C"/>
    <path d="M223.915 107.765H221.405V105.254H220.367V107.765H217.802V108.802H220.367V111.313H221.405V108.802H223.915V107.765Z" fill="#FFEC3C"/>
    <path d="M26.8149 153.396H23.7582V150.34H22.5028V153.396H19.4462V154.652H22.5028V157.708H23.7582V154.652H26.8149V153.396Z" fill="#FFEC3C"/>
    <path d="M326.805 131.617H321.074V125.832H318.672V131.617H312.886V133.965H318.672V139.75H321.074V133.965H326.805V131.617Z" fill="#FFEC3C"/>
    <path d="M243.947 10.6063C236.633 7.65878 228.337 11.425 225.662 18.7392C224.243 22.6692 224.843 26.9267 226.372 31.4571C226.918 33.0946 226.863 34.8959 226.263 36.5334L226.208 36.6971C225.335 39.0442 226.59 41.7188 228.937 42.5375L233.577 44.2296C235.924 45.1029 238.598 43.8475 239.417 41.5004C240.017 39.8084 241.218 38.3892 242.747 37.5159C247.332 34.8959 250.88 31.9484 252.135 27.3088C254.045 20.4859 250.497 13.2263 243.947 10.6063Z" fill="#FFEC3C"/>
    <path d="M240.181 43.7384L238.871 43.2471L239.526 41.4459L226.262 36.588L225.607 38.3892L224.625 38.0071C224.134 37.8434 223.588 38.0617 223.37 38.6075L223.042 39.5354C222.878 40.0267 223.097 40.5725 223.642 40.7909L224.625 41.1729L224.188 42.3738L223.206 41.9917C222.715 41.8279 222.169 42.0463 221.95 42.5921L221.623 43.52C221.459 44.0113 221.677 44.5571 222.223 44.7754L223.26 45.1575C223.042 46.6313 223.861 48.0504 225.28 48.5963L225.607 48.7054C225.335 50.4521 226.317 52.1988 228.064 52.8538C229.81 53.5088 231.666 52.7992 232.594 51.2709C234.013 51.8167 235.596 51.2163 236.36 49.9609L237.725 50.4521C238.216 50.6159 238.762 50.3975 238.98 49.8517L239.308 48.9238C239.472 48.4325 239.253 47.8867 238.707 47.6684L237.397 47.1771L237.834 45.9763L239.144 46.4675C239.635 46.6313 240.181 46.4129 240.4 45.8671L240.727 44.9392C240.945 44.4479 240.727 43.9021 240.181 43.7384Z" fill="#0B4870"/>
    <path d="M246.185 7.71334L244.22 7.00376C243.948 6.89459 243.784 6.5671 243.893 6.29418L245.858 0.94501C245.967 0.672094 246.295 0.50834 246.568 0.617507L248.533 1.32709C248.805 1.43626 248.969 1.76376 248.86 2.03668L246.895 7.38585C246.84 7.65876 246.513 7.82251 246.185 7.71334Z" fill="#FFEC3C"/>
    <path d="M254.919 29.0554L255.628 27.0904C255.737 26.8175 256.065 26.6537 256.338 26.7629L261.687 28.7279C261.96 28.8371 262.124 29.1646 262.015 29.4375L261.305 31.4025C261.196 31.6754 260.868 31.8392 260.595 31.73L255.246 29.765C254.973 29.7104 254.81 29.3829 254.919 29.0554Z" fill="#FFEC3C"/>
    <path d="M216.274 14.9184L216.983 12.9534C217.092 12.6805 217.42 12.5167 217.693 12.6259L223.042 14.5909C223.315 14.7 223.479 15.0275 223.37 15.3005L222.66 17.2655C222.551 17.5384 222.223 17.7021 221.95 17.593L216.601 15.628C216.328 15.5188 216.165 15.1913 216.274 14.9184Z" fill="#FFEC3C"/>
    <path d="M255.246 18.3571L254.373 16.4467C254.264 16.1738 254.373 15.8463 254.646 15.6825L259.831 13.2808C260.104 13.1717 260.432 13.2808 260.595 13.5538L261.469 15.4642C261.578 15.7371 261.469 16.0646 261.196 16.2284L256.01 18.63C255.683 18.7938 255.355 18.63 255.246 18.3571Z" fill="#FFEC3C"/>
    <path d="M228.882 8.69584L230.793 7.8225C231.066 7.71333 231.175 7.33125 231.066 7.05834L228.664 1.87292C228.555 1.6 228.173 1.49083 227.9 1.6L225.99 2.47334C225.717 2.5825 225.607 2.96458 225.717 3.2375L228.118 8.42292C228.282 8.69584 228.61 8.805 228.882 8.69584Z" fill="#F6B95F"/>
    <path d="M303.466 60.2103L234.698 73.7227L241.055 106.071L309.822 92.5588L303.466 60.2103Z" stroke="black" stroke-miterlimit="10"/>
    <path d="M242.678 103.089L238.607 103.888L239.407 107.959L243.477 107.159L242.678 103.089Z" fill="#C9C9C9" stroke="#155263" stroke-width="0.75" stroke-miterlimit="10"/>
    <path d="M236.623 71.5321L232.552 72.3318L233.352 76.4022L237.422 75.6024L236.623 71.5321Z" fill="#C9C9C9" stroke="#155263" stroke-width="0.75" stroke-miterlimit="10"/>
    <path d="M305.011 57.9466L300.941 58.7464L301.741 62.8167L305.811 62.0169L305.011 57.9466Z" fill="#C9C9C9" stroke="#155263" stroke-width="0.75" stroke-miterlimit="10"/>
    <path d="M311.452 90.1545L307.382 90.9543L308.182 95.0247L312.252 94.2249L311.452 90.1545Z" fill="#C9C9C9" stroke="#155263" stroke-width="0.75" stroke-miterlimit="10"/>
    <path d="M244.111 91.4987L242.31 82.4379L245.148 81.892L247.059 91.6625C247.222 92.372 247.495 92.9179 247.932 93.2454C248.369 93.5729 248.915 93.682 249.57 93.5729C250.225 93.4637 250.661 93.1362 250.989 92.645C251.262 92.1537 251.371 91.5533 251.207 90.8437L249.297 81.0733L252.135 80.5275L253.936 89.5883C254.318 91.5533 254.209 93.027 253.609 94.0641C253.008 95.1012 251.862 95.8108 250.115 96.1383C248.423 96.4658 247.059 96.302 246.131 95.5379C245.203 94.7737 244.493 93.4637 244.111 91.4987Z" fill="black"/>
    <path d="M255.301 82.4925L254.81 79.9816L263.325 78.2896L263.816 80.8004L260.977 81.3462L262.833 90.68L265.672 90.1341L266.163 92.6449L257.648 94.337L257.157 91.8262L259.995 91.2804L258.139 81.9466L255.301 82.4925Z" fill="black"/>
    <path d="M273.641 76.3246L275.77 75.8879L271.403 93.5184L269.274 93.955L273.641 76.3246Z" fill="black"/>
    <path d="M279.645 84.5121L277.844 75.4512L280.682 74.9054L282.593 84.6758C282.756 85.3854 283.029 85.9313 283.466 86.2588C283.902 86.5863 284.448 86.6954 285.103 86.5863C285.758 86.4771 286.195 86.1496 286.523 85.6583C286.795 85.1671 286.905 84.5667 286.741 83.8571L284.83 74.0867L287.669 73.5408L289.47 82.6017C289.852 84.5667 289.743 86.0404 289.142 87.0775C288.542 88.1146 287.396 88.8242 285.649 89.1517C283.957 89.4792 282.592 89.3154 281.665 88.5512C280.682 87.7871 279.972 86.4771 279.645 84.5121Z" fill="black"/>
    <path d="M303.061 85.3854L300.114 85.9858L296.457 81.7829L294.655 87.0775L291.708 87.6779L294.492 79.5996L289.033 73.3771L291.981 72.7767L295.474 76.8158L297.221 71.7396L300.168 71.1392L297.494 78.9992L303.061 85.3854Z" fill="black"/>
    <path d="M277.625 148.975H193.84C188.163 148.975 183.415 153.232 182.76 158.855L175.172 224.737H147.717C146.243 224.737 145.042 225.938 145.042 227.411C145.042 228.885 146.243 230.086 147.717 230.086H174.572H179.375H280.791L288.651 161.475C289.415 154.761 284.285 148.975 277.625 148.975Z" fill="#D3D3D3"/>
    <path d="M232.43 203.34C238.158 203.34 242.801 198.697 242.801 192.969C242.801 187.242 238.158 182.598 232.43 182.598C226.703 182.598 222.059 187.242 222.059 192.969C222.059 198.697 226.703 203.34 232.43 203.34Z" fill="#F7F7F7"/>
    <defs>
    <linearGradient id="paint0_linear" x1="177.429" y1="9.71771" x2="177.429" y2="236.671" gradientUnits="userSpaceOnUse">
    <stop offset="0.421875" stop-color="#FEAD62"/>
    <stop offset="1" stop-color="#FFEC3C"/>
    </linearGradient>
    </defs>
    </svg>
