<svg viewBox="0 0 538 309" fill="none" xmlns="http://www.w3.org/2000/svg">
    <path d="M73.5346 264.081H445.516C445.516 264.081 506.135 214.346 464.929 147.556C421.752 77.6048 328.202 109.789 259.911 167.65C207.654 211.917 164.709 160.631 121.232 159.381C63.8356 157.722 25.8459 229.716 73.5346 264.081Z" fill="url(#paint0_linear)"/>
    <path d="M261.985 126.281H249.358V148.586H261.985V126.281Z" fill="#F2F2F3"/>
    <path d="M300.712 63.6426H208.488C207.31 63.6426 206.355 64.5982 206.355 65.777V129.242C206.355 130.421 207.31 131.376 208.488 131.376H300.712C301.89 131.376 302.845 130.421 302.845 129.242V65.777C302.845 64.5982 301.89 63.6426 300.712 63.6426Z" fill="#D3D3D3"/>
    <path d="M297.624 67.0816H211.577C210.662 67.0816 209.921 67.8233 209.921 68.7382V126.278C209.921 127.193 210.662 127.935 211.577 127.935H297.624C298.538 127.935 299.279 127.193 299.279 126.278V68.7382C299.279 67.8233 298.538 67.0816 297.624 67.0816Z" fill="#F7F7F7"/>
    <path d="M226.717 97.5095C233.192 97.5095 238.44 92.2576 238.44 85.779C238.44 79.3004 233.192 74.0484 226.717 74.0484C220.242 74.0484 214.994 79.3004 214.994 85.779C214.994 92.2576 220.242 97.5095 226.717 97.5095Z" fill="#FFEB3C"/>
    <path d="M291.242 90.3224H243.467V92.4453H291.242V90.3224Z" fill="#084970"/>
    <path d="M291.242 97.355H243.467V99.4779H291.242V97.355Z" fill="#084970"/>
    <path d="M291.242 103.758H214.994V105.881H291.242V103.758Z" fill="#084970"/>
    <path d="M291.242 110.161H214.994V112.284H291.242V110.161Z" fill="#084970"/>
    <path d="M253.411 79.1227L254.177 75.3766H255.034L253.886 80.3531H253.059L252.112 76.7198L251.145 80.3531H250.314L249.166 75.3766H250.024L250.796 79.1158L251.746 75.3766H252.471L253.411 79.1227ZM257.106 80.4215C256.579 80.4215 256.152 80.2563 255.824 79.9259C255.498 79.5932 255.335 79.1512 255.335 78.5997V78.4972C255.335 78.1281 255.406 77.7988 255.547 77.5094C255.691 77.2177 255.891 76.991 256.149 76.8292C256.406 76.6674 256.693 76.5865 257.01 76.5865C257.514 76.5865 257.902 76.7472 258.176 77.0685C258.451 77.3898 258.589 77.8444 258.589 78.4323V78.7672H256.173C256.198 79.0726 256.299 79.3141 256.477 79.4918C256.657 79.6696 256.882 79.7584 257.154 79.7584C257.534 79.7584 257.844 79.6046 258.083 79.297L258.531 79.7242C258.383 79.9453 258.185 80.1173 257.936 80.2404C257.69 80.3611 257.413 80.4215 257.106 80.4215ZM257.007 77.2531C256.779 77.2531 256.594 77.3328 256.453 77.4923C256.314 77.6518 256.225 77.874 256.186 78.1588H257.769V78.0973C257.751 77.8193 257.677 77.6097 257.547 77.4684C257.417 77.3248 257.237 77.2531 257.007 77.2531ZM262.482 78.5416C262.482 79.1158 262.353 79.5727 262.096 79.9122C261.841 80.2517 261.489 80.4215 261.04 80.4215C260.607 80.4215 260.27 80.2654 260.028 79.9532L259.987 80.3531H259.235V75.1031H260.066V77.0104C260.305 76.7278 260.627 76.5865 261.033 76.5865C261.484 76.5865 261.838 76.754 262.096 77.089C262.353 77.424 262.482 77.8922 262.482 78.4938V78.5416ZM261.652 78.4698C261.652 78.0688 261.581 77.768 261.44 77.5675C261.298 77.367 261.093 77.2667 260.824 77.2667C260.464 77.2667 260.212 77.424 260.066 77.7384V79.2628C260.214 79.5841 260.469 79.7448 260.831 79.7448C261.091 79.7448 261.292 79.6479 261.433 79.4542C261.574 79.2605 261.647 78.9677 261.652 78.5758V78.4698ZM265.005 80.3531V75.3766H266.474C266.914 75.3766 267.304 75.4746 267.643 75.6705C267.985 75.8665 268.249 76.1445 268.436 76.5045C268.623 76.8645 268.717 77.277 268.717 77.7418V77.9913C268.717 78.463 268.622 78.8777 268.433 79.2355C268.246 79.5932 267.978 79.8689 267.63 80.0626C267.283 80.2563 266.886 80.3531 266.437 80.3531H265.005ZM265.869 76.0739V79.6627H266.433C266.887 79.6627 267.234 79.5214 267.476 79.2389C267.72 78.9541 267.844 78.5462 267.848 78.0153V77.7384C267.848 77.1984 267.731 76.7859 267.496 76.5011C267.262 76.2163 266.921 76.0739 266.474 76.0739H265.869ZM271.126 80.4215C270.6 80.4215 270.173 80.2563 269.844 79.9259C269.519 79.5932 269.356 79.1512 269.356 78.5997V78.4972C269.356 78.1281 269.426 77.7988 269.568 77.5094C269.711 77.2177 269.912 76.991 270.169 76.8292C270.427 76.6674 270.714 76.5865 271.031 76.5865C271.534 76.5865 271.923 76.7472 272.196 77.0685C272.472 77.3898 272.61 77.8444 272.61 78.4323V78.7672H270.193C270.218 79.0726 270.32 79.3141 270.497 79.4918C270.677 79.6696 270.903 79.7584 271.174 79.7584C271.555 79.7584 271.865 79.6046 272.104 79.297L272.552 79.7242C272.403 79.9453 272.205 80.1173 271.957 80.2404C271.711 80.3611 271.434 80.4215 271.126 80.4215ZM271.027 77.2531C270.799 77.2531 270.615 77.3328 270.473 77.4923C270.334 77.6518 270.246 77.874 270.207 78.1588H271.789V78.0973C271.771 77.8193 271.697 77.6097 271.567 77.4684C271.437 77.3248 271.257 77.2531 271.027 77.2531ZM275.33 79.3483C275.33 79.2002 275.269 79.0874 275.146 79.0099C275.025 78.9324 274.823 78.8641 274.541 78.8048C274.258 78.7456 274.022 78.6704 273.833 78.5792C273.419 78.3787 273.211 78.0882 273.211 77.7076C273.211 77.3886 273.346 77.122 273.615 76.9078C273.883 76.6936 274.225 76.5865 274.64 76.5865C275.082 76.5865 275.439 76.6959 275.71 76.9147C275.983 77.1334 276.12 77.4171 276.12 77.7657H275.289C275.289 77.6062 275.23 77.4741 275.112 77.3693C274.993 77.2622 274.836 77.2086 274.64 77.2086C274.458 77.2086 274.308 77.2508 274.192 77.3351C274.078 77.4194 274.021 77.5322 274.021 77.6735C274.021 77.8011 274.075 77.9002 274.182 77.9708C274.289 78.0415 274.505 78.1132 274.831 78.1862C275.157 78.2568 275.412 78.3422 275.597 78.4425C275.784 78.5405 275.922 78.659 276.01 78.798C276.102 78.937 276.147 79.1056 276.147 79.3038C276.147 79.6365 276.009 79.9065 275.734 80.1139C275.458 80.319 275.097 80.4215 274.65 80.4215C274.347 80.4215 274.077 80.3668 273.84 80.2574C273.603 80.1481 273.419 79.9977 273.286 79.8063C273.154 79.6149 273.088 79.4087 273.088 79.1876H273.895C273.906 79.3836 273.98 79.5351 274.117 79.6422C274.254 79.747 274.435 79.7994 274.66 79.7994C274.879 79.7994 275.045 79.7584 275.159 79.6764C275.273 79.5921 275.33 79.4827 275.33 79.3483ZM277.757 80.3531H276.927V76.6549H277.757V80.3531ZM276.875 75.6945C276.875 75.5669 276.915 75.4609 276.995 75.3766C277.077 75.2923 277.193 75.2501 277.344 75.2501C277.494 75.2501 277.61 75.2923 277.692 75.3766C277.774 75.4609 277.815 75.5669 277.815 75.6945C277.815 75.8198 277.774 75.9246 277.692 76.0089C277.61 76.0909 277.494 76.132 277.344 76.132C277.193 76.132 277.077 76.0909 276.995 76.0089C276.915 75.9246 276.875 75.8198 276.875 75.6945ZM278.519 78.4767C278.519 77.9025 278.654 77.4445 278.923 77.1027C279.194 76.7586 279.553 76.5865 279.999 76.5865C280.421 76.5865 280.752 76.7335 280.994 77.0275L281.031 76.6549H281.78V80.2404C281.78 80.7257 281.628 81.1085 281.325 81.3888C281.025 81.6691 280.618 81.8092 280.105 81.8092C279.834 81.8092 279.569 81.7522 279.309 81.6383C279.051 81.5267 278.855 81.3797 278.721 81.1974L279.114 80.6984C279.369 81.0014 279.684 81.153 280.057 81.153C280.333 81.153 280.551 81.0778 280.71 80.9274C280.87 80.7793 280.949 80.5605 280.949 80.2711V80.0216C280.71 80.2882 280.391 80.4215 279.992 80.4215C279.559 80.4215 279.205 80.2495 278.929 79.9054C278.656 79.5613 278.519 79.0851 278.519 78.4767ZM279.346 78.5485C279.346 78.9199 279.422 79.2127 279.572 79.4269C279.725 79.6388 279.935 79.7448 280.204 79.7448C280.539 79.7448 280.788 79.6012 280.949 79.3141V77.6871C280.792 77.4069 280.546 77.2667 280.211 77.2667C279.938 77.2667 279.725 77.375 279.572 77.5914C279.422 77.8079 279.346 78.1269 279.346 78.5485ZM283.407 76.6549L283.431 77.0822C283.704 76.7517 284.063 76.5865 284.508 76.5865C285.278 76.5865 285.67 77.0275 285.683 77.9093V80.3531H284.853V77.9572C284.853 77.7225 284.802 77.5493 284.699 77.4376C284.599 77.3237 284.434 77.2667 284.203 77.2667C283.868 77.2667 283.619 77.4183 283.455 77.7213V80.3531H282.624V76.6549H283.407Z" fill="black"/>
    <path d="M247.161 116.562H214.994V118.685H247.161V116.562Z" fill="#084970"/>
    <path d="M236.425 142.392C236.425 142.392 232.153 146.589 232.993 147.922C233.834 149.256 247.124 148.171 247.124 148.171L248.368 140.895L247.225 138.32C247.225 138.32 237.837 141.545 236.425 142.392Z" fill="#084970"/>
    <path d="M257.821 139.705C257.821 139.705 253.484 139.176 251.582 137.702C249.681 136.229 246.295 135.903 243.121 137.702C239.947 139.502 234.872 142.463 236.882 142.463C238.892 142.463 245.343 139.468 245.343 139.468C245.343 139.468 240.482 142.569 241.217 144.369C241.952 146.168 245.626 149.024 247.121 148.18C248.617 147.336 256.129 144.369 258.668 144.369C261.207 144.369 257.821 139.705 257.821 139.705Z" fill="#987A5E"/>
    <path d="M183.715 154.623H178.008V263.98H183.715V154.623Z" fill="#0B538C"/>
    <path d="M296.946 154.623H291.239V263.98H296.946V154.623Z" fill="#0B538C"/>
    <path d="M318.843 147.47H158.035V158.202H318.843V147.47Z" fill="#0B4870"/>
    <path d="M269.202 253.452C269.202 253.452 267.286 257.743 263.835 258.51C260.383 259.277 246.392 261.586 250.993 263.98C255.594 266.375 277.897 266.183 277.897 266.183V248.917L269.202 253.452Z" fill="#0B538C"/>
    <path d="M319.424 251.223C319.424 251.223 317.505 255.514 314.057 256.284C310.608 257.054 296.614 259.36 301.212 261.755C305.81 264.149 328.116 263.955 328.116 263.955V246.694L319.424 251.223Z" fill="#0B538C"/>
    <path d="M312.327 191.594L315.014 253.451L329.197 253.097L333.049 188.891L312.327 191.594Z" fill="#2A94F4"/>
    <path d="M318.846 245.257L281.857 260.75L282.984 263.168L320.667 249.955V243.026L318.846 245.257Z" fill="#F2F2F3"/>
    <path d="M318.846 243.672L310.522 262.041L314.683 261.394L324.531 245.257L323.564 241.738L318.846 243.672Z" fill="#F2F2F3"/>
    <path d="M318.846 249.795L360.762 263.168V260.106L320.667 243.026L318.846 249.795Z" fill="#F2F2F3"/>
    <path d="M324.528 204.664H318.843V245.257H324.528V204.664Z" fill="#D3D3D3"/>
    <path d="M350.997 173.684C350.997 173.684 350.082 194.35 336.305 194.35C322.529 194.35 281.062 195.543 281.062 195.543V253.452H266.145C266.145 253.452 253.915 198.827 266.145 181.812C278.374 164.797 350.997 173.684 350.997 173.684Z" fill="#0B4870"/>
    <path d="M322.944 92.4454V89.8704C322.944 89.8704 315.423 89.527 314.826 82.7719C314.228 76.0169 314.314 70.0314 314.314 70.0314C314.913 68.4107 315.998 67.0148 317.42 66.035C318.843 65.0552 320.533 64.5394 322.26 64.5581C328.499 64.4751 334.395 68.4063 334.395 68.4063L333.883 92.9489C333.883 92.9489 326.875 96.634 322.944 92.4454Z" fill="#987A5E"/>
    <path d="M320.239 96.7199L322.374 92.4454H334.167L336.305 96.7199H320.239Z" fill="#F2F2F3"/>
    <path d="M316.999 96.2849C316.999 96.2849 302.799 97.6382 297.055 108.462C291.31 119.285 288.948 133.491 277.797 135.519C270.533 136.788 263.193 137.58 255.825 137.888V147.347C255.825 147.347 286.587 150.054 294.361 140.921C302.136 131.788 308.221 117.245 308.221 117.245C308.221 117.245 307.883 161.215 303.826 172.717C299.768 184.218 331.882 179.818 342.362 180.496C352.841 181.174 356.899 156.142 357.573 144.303C358.248 132.464 361.968 101.346 348.446 97.953C334.924 94.5597 316.999 96.2849 316.999 96.2849Z" fill="#FFBE55"/>
    <path d="M314.085 69.525C314.085 69.525 316.905 71.8339 316.307 76.9639C315.709 82.0939 317.588 81.8278 317.588 78.0769C317.588 74.326 317.588 70.721 319.555 70.4663C321.522 70.2117 322.375 74.8267 321.271 77.0469C321.271 77.0469 326.057 82.1769 328.877 82.1769H334.69C334.69 82.1769 339.551 75.7651 339.474 68.0687C339.396 60.3723 330.161 56.7816 323.238 57.4654C316.316 58.1492 312.89 65.8514 314.085 69.525Z" fill="#022A42"/>
    <path d="M363.987 127.563H323.092C320.746 127.563 318.843 129.466 318.843 131.814V182.536C318.843 184.884 320.746 186.788 323.092 186.788H363.987C366.334 186.788 368.236 184.884 368.236 182.536V131.814C368.236 129.466 366.334 127.563 363.987 127.563Z" fill="#D3D3D3"/>
    <path d="M350.997 149.258H343.54V188.891H350.997V149.258Z" fill="#F2F2F3"/>
    <path d="M343.54 188.891C343.54 195.091 324.531 194.041 324.531 194.041V197.585H342.259C351.878 197.585 351.005 188.879 351.005 188.879" fill="#F2F2F3"/>
    <path d="M350.265 194.052H292.394C291.221 194.052 290.27 195.004 290.27 196.178V201.102C290.27 202.276 291.221 203.228 292.394 203.228H350.265C351.438 203.228 352.389 202.276 352.389 201.102V196.178C352.389 195.004 351.438 194.052 350.265 194.052Z" fill="#D3D3D3"/>
    <path d="M336.1 203.228H308.103V206.1H336.1V203.228Z" fill="#F2F2F3"/>
    <path d="M361.471 268.206C363.803 268.206 365.694 266.314 365.694 263.981C365.694 261.647 363.803 259.755 361.471 259.755C359.138 259.755 357.247 261.647 357.247 263.981C357.247 266.314 359.138 268.206 361.471 268.206Z" fill="#D3D3D3"/>
    <path d="M312.327 268.206C314.659 268.206 316.55 266.314 316.55 263.981C316.55 261.647 314.659 259.755 312.327 259.755C309.994 259.755 308.103 261.647 308.103 263.981C308.103 266.314 309.994 268.206 312.327 268.206Z" fill="#D3D3D3"/>
    <path d="M281.497 268.206C283.829 268.206 285.72 266.314 285.72 263.981C285.72 261.647 283.829 259.755 281.497 259.755C279.164 259.755 277.274 261.647 277.274 263.981C277.274 266.314 279.164 268.206 281.497 268.206Z" fill="#D3D3D3"/>
    <path d="M474.708 261.494H51.6203C49.4647 261.494 47.7173 263.243 47.7173 265.4C47.7173 267.556 49.4647 269.305 51.6203 269.305H474.708C476.863 269.305 478.611 267.556 478.611 265.4C478.611 263.243 476.863 261.494 474.708 261.494Z" fill="black"/>
    <defs>
    <linearGradient id="paint0_linear" x1="265.591" y1="107.744" x2="265.591" y2="264.081" gradientUnits="userSpaceOnUse">
    <stop offset="0.520833" stop-color="#FEAD62"/>
    <stop offset="1" stop-color="#FFEC3C"/>
    </linearGradient>
    </defs>
    </svg>
