<svg viewBox="0 0 392 469" fill="none" xmlns="http://www.w3.org/2000/svg">
    <path d="M21.6087 24.8099C82.4623 -15.2934 167.979 -7.11903 221.776 52.4071C251.19 84.9648 263.137 129.749 293.668 161.608C328.043 197.45 369.124 232.313 384.704 281.219C401.262 333.2 386.73 392.796 349.701 432.55C304.637 480.897 238.404 466.365 175.804 465.597C-80.5358 462.383 -271.061 291.28 -28.6252 80.3536C-8.36392 62.6076 1.48723 38.0146 21.6087 24.8099Z" fill="url(#paint0_linear)"/>
    <path d="M338.662 179.145C337.335 179.564 330.348 184.734 330.348 184.734L322.104 190.044L321.755 187.039C321.755 187.039 318.401 180.332 314.279 180.612C314.279 180.612 319.239 186.69 319.868 190.742C320.497 194.795 320.776 197.589 320.776 197.589L315.327 202.969L324.41 214.637L345.719 198.707C345.719 198.707 339.99 178.725 338.662 179.145Z" fill="#DBA17B"/>
    <path d="M342.924 179.145L339.221 208.838L324.41 209.187L320.846 179.145H342.924Z" fill="#9E7738"/>
    <path d="M346.138 179.564H318.191V176.629H320.846V172.018L343.553 175.372L343.623 177.049H346.138V179.913" fill="#0E538C"/>
    <path d="M344.251 199.266C349.422 199.755 342.924 185.572 342.924 185.572C342.924 185.572 328.951 184.594 328.811 185.363C328.671 186.131 328.741 187.389 329.859 187.668C330.977 187.948 339.71 189.136 339.71 189.136C339.71 189.136 330.628 189.555 330.767 190.533C331.047 192 332.095 192.14 334.82 192.559C337.125 192.908 342.155 193.048 342.155 193.048C342.155 193.048 332.584 193.258 332.793 193.886C333.003 194.515 332.374 196.472 335.658 195.982C343.134 195.004 344.251 199.266 344.251 199.266Z" fill="#DBA17B"/>
    <path d="M281.372 256.347C281.372 256.347 295.555 356.605 288.987 377.914C282.42 399.224 279.835 418.437 279.835 418.437L246.858 408.795C246.858 408.795 257.757 358.631 259.434 348.99C261.041 339.348 244.203 261.028 244.203 261.028L281.372 256.347Z" fill="#0B4870"/>
    <path d="M265.792 263.543L250.211 424.725H218.702C218.702 424.725 228.902 254.111 227.086 252.644C225.269 251.317 265.792 263.543 265.792 263.543Z" fill="#0B4870"/>
    <path d="M278.228 165.311C278.228 165.311 281.581 219.388 288.778 217.431C296.044 215.545 315.467 201.432 315.467 201.432L327.274 214.427C327.274 214.427 291.293 254.46 276.481 238.112C261.739 221.693 278.228 165.311 278.228 165.311Z" fill="#0B4870"/>
    <path d="M268.516 451.693L270.682 440.794L247.696 431.572L244.063 447.781L245.321 447.99C250.491 450.366 275.573 461.964 279.486 462.313C283.817 462.732 268.516 451.693 268.516 451.693Z" fill="#0B4870"/>
    <path d="M213.881 293.027L216.396 296.66C216.396 296.66 217.584 299.105 220.518 302.808C221.287 303.786 222.195 304.625 223.243 305.253C224.501 306.022 226.247 307 227.365 307.279C228.762 307.559 229.042 309.375 227.854 309.934C226.666 310.423 222.894 309.725 219.261 306.93C215.628 304.205 217.304 311.122 217.933 313.707C218.492 316.222 219.889 324.187 219.261 325.025C218.352 326.213 216.885 325.375 216.396 322.86C215.907 320.275 213.811 312.729 212.484 313.148C211.156 313.498 214.23 326.423 214.23 326.423C214.23 326.423 215.348 329.078 213.811 329.567C211.086 330.405 208.781 316.432 208.641 315.104C208.501 314.196 207.034 314.546 207.244 315.524C207.453 316.572 210.597 328.309 207.872 329.217C205.707 329.916 205.916 317.759 203.89 315.663C201.864 313.567 204.728 324.886 202.632 325.445C201.864 325.654 201.235 325.724 200.536 318.947C199.838 312.03 200.956 293.097 200.956 293.097L214.091 293.236" fill="#FFE3CA"/>
    <path d="M259.504 147.146C259.224 144.98 260.342 135.967 260.342 135.967C260.342 135.967 268.586 135.338 269.355 127.234C270.123 119.06 270.193 100.196 270.193 100.196L255.451 92.3706L238.544 104.318L234.701 113.261L239.731 134.57V145.259L259.504 147.146Z" fill="#DBA17B"/>
    <path d="M260.342 135.967C260.342 135.967 254.823 135.828 249.653 131.985C249.653 131.985 251.888 138.063 260.133 137.993L260.342 135.967Z" fill="#C68C6B"/>
    <path d="M234.981 122.204C237.216 127.164 238.544 134.43 238.544 134.43C239.731 136.666 240.151 129.54 240.151 129.54C240.151 129.54 241.199 122.693 240.221 120.038C240.221 120.038 236.029 121.365 235.12 113.889C234.631 110.187 240.221 108.44 241.758 112.911L245.251 113.261C245.251 113.261 245.53 99.2874 253.565 101.872C253.565 101.872 259.364 105.436 262.857 103.27C266.351 101.104 266.071 100.335 266.071 100.335C266.071 100.335 267.748 104.038 272.219 101.593C276.691 99.1476 277.25 94.8858 275.713 92.8597C274.804 91.6719 273.966 90.3445 272.499 90.065C271.032 89.7855 269.425 90.4143 268.516 91.5322C269.634 89.9253 268.866 87.5498 267.189 86.432C265.582 85.384 263.416 85.4538 261.6 86.1525C259.783 86.8512 258.246 88.1088 256.779 89.3663C255.731 86.432 252.587 84.336 249.513 84.6154C246.369 84.8949 243.644 87.4101 243.085 90.4842C241.408 88.3882 238.194 87.8991 235.749 89.0869C233.304 90.2746 231.767 92.7898 231.278 95.4447C230.789 98.0996 231.348 100.824 232.396 103.34C230.509 102.292 227.924 103.06 226.666 104.807C225.409 106.553 225.409 108.999 226.317 110.955C227.225 112.911 228.972 114.379 230.858 115.357C229.461 116.474 228.972 118.71 229.88 120.317C230.789 121.924 232.885 122.762 234.561 122.134" fill="#0E538C"/>
    <path d="M206.755 168.595C206.755 168.595 212.414 142.535 239.731 145.26C264.744 147.775 264.744 147.775 264.744 147.775C264.744 147.775 281.931 155.041 279.485 175.512C277.11 195.982 275.922 214.707 276.551 218.27C277.18 221.903 283.188 254.111 281.372 256.347C263.346 278.285 217.304 243.282 217.304 243.282L206.755 168.595Z" fill="#E7E7E7"/>
    <path d="M239.732 145.259L233.374 297.498L214.44 287.228L216.396 152.176C216.396 152.176 221.496 143.443 239.732 145.259Z" fill="#0E538C"/>
    <path d="M200.257 295.752L206.755 168.525C208.781 160.7 213.112 154.691 218.702 149.661V297.428L200.257 295.752Z" fill="#0E538C"/>
    <path d="M259.504 147.146C259.504 147.146 276.551 155.6 275.783 184.175C274.944 212.75 286.053 293.516 286.053 293.516L300.306 290.651C300.306 290.651 283.817 214.078 283.118 200.663C282.42 186.97 283.608 167.617 274.385 154.272C267.748 144.701 259.504 147.146 259.504 147.146Z" fill="#0E538C"/>
    <path d="M239.731 145.26C239.731 145.26 234.142 157.835 234.701 162.377C235.26 166.988 237.216 176.63 237.216 176.63C237.216 176.63 233.094 179.145 233.443 181.311C233.723 183.476 237.007 217.711 237.007 217.711L239.731 145.26Z" fill="#0B4870"/>
    <path d="M218.702 297.498C220.448 266.757 220.029 207.091 221.776 176.28L218.702 297.498Z" fill="#0B4870"/>
    <path d="M268.656 440.026C268.377 439.886 274.455 416.9 274.455 416.9L254.264 411.031L250.002 432.55L268.656 440.026Z" fill="#DBA17B"/>
    <path d="M245.111 424.795H222.125V442.82H245.111V424.795Z" fill="#DBA17B"/>
    <path d="M247.347 452.602L245.251 441.702H220.448L223.034 457.772L224.361 457.842C230.02 458.121 257.617 459.588 261.39 458.47C265.722 457.143 247.347 452.602 247.347 452.602Z" fill="#0B4870"/>
    <path d="M81.2047 437.021C81.2047 437.021 76.8031 454.488 80.0869 451.344C83.3007 448.2 95.178 420.323 95.178 420.323L92.6628 417.808L81.2047 437.021Z" fill="#0B4870"/>
    <path d="M95.1082 420.323L83.5802 406.909L70.6549 430.174L81.2047 437.021L95.1082 420.323Z" fill="#0B4870"/>
    <path d="M187.471 378.962H115.369C112.016 378.962 109.291 376.238 109.291 372.884C109.291 369.53 112.016 366.806 115.369 366.806H187.402C190.755 366.806 193.48 369.53 193.48 372.884C193.55 376.238 190.825 378.962 187.471 378.962Z" fill="#D3D3D3"/>
    <path d="M136.489 449.616V455.764H198.53V449.616H136.489Z" fill="#0B4870"/>
    <path d="M142.198 454.558C142.757 457.772 140.591 460.776 137.377 461.265C134.163 461.824 131.159 459.658 130.67 456.444C130.111 453.23 132.277 450.226 135.491 449.737C138.705 449.178 141.709 451.344 142.198 454.558Z" fill="#0B4870"/>
    <path d="M170.284 374.98H164.136V452.112H170.284V374.98Z" fill="#0B4870"/>
    <path d="M204.239 454.558C204.798 457.772 202.632 460.776 199.419 461.265C196.205 461.824 193.2 459.658 192.711 456.444C192.152 453.23 194.318 450.226 197.532 449.737C200.746 449.178 203.75 451.344 204.239 454.558Z" fill="#0B4870"/>
    <path d="M206.335 378.962H138.286C133.674 378.962 130.321 374.421 131.648 369.88L164.136 257.814C164.975 254.81 167.699 252.714 170.773 252.714H238.823C243.434 252.714 246.788 257.255 245.461 261.796L212.973 373.862C212.134 376.936 209.41 378.962 206.335 378.962Z" fill="#D3D3D3"/>
    <path d="M196.973 378.962H137.657C133.046 378.962 129.692 374.421 131.019 369.88L163.507 257.814C164.346 254.81 167.07 252.714 170.145 252.714H229.461C234.072 252.714 237.426 257.255 236.098 261.796L203.611 373.862C202.772 376.936 200.047 378.962 196.973 378.962Z" fill="#F2F2F2"/>
    <path d="M206.335 378.962H134.233C130.88 378.962 128.155 376.238 128.155 372.884C128.155 369.53 130.88 366.806 134.233 366.806H206.265C209.619 366.806 212.344 369.53 212.344 372.884C212.414 376.238 209.689 378.962 206.335 378.962Z" fill="#D3D3D3"/>
    <path d="M146.739 283.804L130.74 326.353L134.513 334.667L156.101 330.894L162.25 285.411L146.739 283.804Z" fill="#FCD2B1"/>
    <path d="M156.451 263.124C156.451 263.124 143.805 269.761 141.01 291.56L157.708 300.712L156.451 263.124Z" fill="#2A94F4"/>
    <path d="M176.852 254.81L156.94 263.194L141.22 333.13L193.759 353.81L221.776 274.023C221.776 274.023 217.235 257.395 190.965 253.133L176.852 254.81Z" fill="#2A94F4"/>
    <path d="M229.95 336.903C229.95 335.995 229.391 330.475 229.112 329.567L220.448 274.163C218.772 266.547 210.248 262.705 203.471 266.478C198.44 269.272 196.205 275.211 198.161 280.591L208.431 328.17L229.95 336.903Z" fill="#FFE3CA"/>
    <path d="M218.143 325.096L159.525 320.554L156.591 330.894L213.043 349.968C221.706 352.902 230.579 346.055 229.95 336.903C229.531 330.615 224.501 325.585 218.143 325.096Z" fill="#FFE3CA"/>
    <path d="M214.58 264.801C214.58 264.801 222.055 268.015 225.269 287.438L198.86 295.542C198.86 295.542 181.603 276.189 200.047 263.264L214.58 264.801Z" fill="#2A94F4"/>
    <path d="M141.15 331.523C143.316 337.252 154.145 337.532 159.944 335.366C165.673 333.2 171.612 329.916 169.446 324.117C167.28 318.388 157.708 314.965 151.42 316.362C143.805 318.109 138.984 325.724 141.15 331.523Z" fill="#FFE3CA"/>
    <path d="M173.079 339.348L131.229 333.968L131.858 329.218L173.708 334.597C175.035 334.737 175.944 335.925 175.734 337.252C175.524 338.58 174.337 339.488 173.079 339.348Z" fill="#F2F2F2"/>
    <path d="M136.749 334.667L81.2746 327.541C78.0608 327.122 75.5456 324.676 75.1264 321.462L69.3275 281.219C68.8384 277.656 71.8427 274.582 75.4058 275.071L126.338 281.639C128.504 281.918 130.181 283.595 130.461 285.691L136.749 334.667Z" fill="#F2F2F2"/>
    <path d="M70.4453 440.934L56.0529 446.872L46.9702 447.571C42.7783 447.851 39.2849 450.925 38.4465 454.977L38.0273 456.863L87.353 463.012L88.3311 443.17L70.4453 440.934Z" fill="#0B4870"/>
    <path d="M88.3311 443.17L93.1519 421.581L75.336 419.135L70.4453 440.934L88.3311 443.17Z" fill="#FFE3CA"/>
    <path d="M193.759 353.81C193.759 353.81 192.362 365.758 170.913 367.365H119.352L95.0383 435.205L69.4672 431.083L95.0383 331.453L153.656 337.951L193.759 353.81Z" fill="#0B4870"/>
    <path d="M29.1543 401.949L13.7139 399.643L5.53953 395.521C1.76674 393.634 -2.77457 394.473 -5.63909 397.477L-6.96655 398.874L32.1586 429.476L43.1975 412.987L29.1543 401.949Z" fill="#0E538C"/>
    <path d="M43.3372 413.057L56.7515 396.01L42.6385 384.761L29.1543 401.948L43.3372 413.057Z" fill="#FFE3CA"/>
    <path d="M141.22 333.13L101.466 321.253C99.7892 320.764 98.1822 320.135 96.5054 319.576C93.082 318.249 84.4186 316.432 77.7114 326.702C69.1178 339.907 34.6737 389.512 34.6737 389.512L55.7035 405.023L101.606 346.544C105.448 341.235 111.597 338.091 118.164 338.091L153.656 338.021L141.22 333.13Z" fill="#0E538C"/>
    <path d="M192.362 233.012C193.061 231.684 205.357 209.746 194.109 204.227C194.109 204.227 192.642 192.629 179.716 193.886C166.791 195.144 170.284 198.917 162.04 197.03C153.796 195.144 146.041 199.406 146.669 206.323C147.298 213.239 152.538 216.174 162.04 214.497C171.542 212.82 179.087 214.078 179.087 214.078L187.052 216.383L192.362 233.012Z" fill="#FFBE55"/>
    <path d="M193.899 256.766L192.921 228.89L173.638 235.736L175.175 258.094C175.524 263.264 178.389 267.316 183.559 266.967L185.166 266.897C190.336 266.408 194.248 261.936 193.899 256.766Z" fill="#FFE3CA"/>
    <path d="M191.244 232.732C191.244 232.732 194.877 255.998 175.035 257.325L174.127 246.286L191.244 232.732Z" fill="#FCD2B1"/>
    <path d="M174.896 252.155H175.594C185.515 251.666 193.131 243.282 192.642 233.361L191.663 213.1C191.524 210.515 189.358 208.558 186.773 208.698L163.158 209.816C158.617 210.026 155.053 213.938 155.263 218.479L156.032 235.038C156.591 244.959 164.974 252.574 174.896 252.155Z" fill="#FFE3CA"/>
    <path d="M188.1 227.282C188.24 230.636 191.105 233.221 194.458 233.012C197.812 232.872 200.397 230.007 200.187 226.654C200.047 223.3 197.183 220.715 193.829 220.925C190.546 221.064 187.961 223.929 188.1 227.282Z" fill="#FFE3CA"/>
    <path d="M185.236 211.074L186.423 233.64C186.563 235.666 185.725 237.762 183.978 238.88C182.93 239.649 182.092 240.627 180.205 240.348C174.826 239.579 177.341 235.597 166.372 236.156C156.381 236.714 157.149 242.234 157.149 242.234C157.149 242.234 159.106 252.784 172.8 253.273C186.493 253.762 193.34 245.098 191.733 233.571L190.406 209.746L185.236 211.074Z" fill="#FFBE55"/>
    <path d="M155.962 214.916C155.962 214.916 162.32 215.894 171.612 213.659C180.834 211.353 188.17 218.829 188.17 218.829C188.17 218.829 190.126 222.252 190.615 222.182C191.105 222.112 193.899 220.995 193.899 220.995L193.759 210.584L186.982 205.275L168.188 204.506L157.08 206.951L155.962 214.916Z" fill="#FFBE55"/>
    <defs>
    <linearGradient id="paint0_linear" x1="125.54" y1="0.0411377" x2="125.54" y2="468.231" gradientUnits="userSpaceOnUse">
    <stop stop-color="#FEB260"/>
    <stop offset="1" stop-color="#FFE13B"/>
    </linearGradient>
    </defs>
    </svg>
