<svg viewBox="0 0 58 58" fill="none" xmlns="http://www.w3.org/2000/svg">
    <path fill-rule="evenodd" clip-rule="evenodd" d="M52.5625 0H5.43751C2.44688 0 0 2.44688 0 5.4375V52.5625C0 55.5531 2.44688 58 5.43751 58H52.5625C55.5531 58 58 55.5531 58 52.5625V5.4375C58 2.44688 55.5531 0 52.5625 0ZM20.3952 8.82216H37.606C44.069 8.82216 49.3535 14.0413 49.3535 20.4176V37.5824C49.3535 43.9597 44.069 49.1778 37.606 49.1778H20.3952C13.9333 49.1778 8.64763 43.9597 8.64763 37.5824V20.4176C8.64763 14.0413 13.9333 8.82216 20.3952 8.82216ZM28.8908 18.1045C35.1708 18.1045 40.268 23.2006 40.268 29.4816C40.268 35.7627 35.1708 40.8577 28.8909 40.8577C22.6088 40.8577 17.5137 35.7627 17.5137 29.4816C17.5137 23.2006 22.6087 18.1045 28.8908 18.1045V18.1045ZM28.8908 21.9472C33.0494 21.9472 36.4253 25.3211 36.4253 29.4817C36.4253 33.6412 33.0494 37.0161 28.8908 37.0161C24.7302 37.0161 21.3554 33.6412 21.3554 29.4817C21.3554 25.3211 24.7302 21.9471 28.8908 21.9471V21.9472ZM39.8976 16.5278C40.9177 16.5278 41.7441 17.3541 41.7441 18.3742C41.7441 19.3943 40.9177 20.2217 39.8976 20.2217C38.8775 20.2217 38.0501 19.3943 38.0501 18.3742C38.0501 17.3541 38.8775 16.5278 39.8976 16.5278ZM21.8007 12.1189H36.2006C41.6071 12.1189 46.0289 16.5182 46.0289 21.8946V36.3664C46.0289 41.7429 41.6071 46.1421 36.2006 46.1421H21.8006C16.3952 46.1421 11.9723 41.7429 11.9723 36.3664V21.8947C11.9723 16.5181 16.3952 12.1189 21.8006 12.1189H21.8007Z" fill="url(#paint0_linear)"/>
    <defs>
    <linearGradient id="paint0_linear" x1="29" y1="0" x2="29" y2="58" gradientUnits="userSpaceOnUse">
    <stop offset="0.635417" stop-color="#FFBE55"/>
    <stop offset="1" stop-color="#FFD948"/>
    </linearGradient>
    </defs>
    </svg>
    