<?xml version="1.0" encoding="UTF-8" standalone="no"?><!DOCTYPE svg PUBLIC "-//W3C//DTD SVG 1.1//EN" "http://www.w3.org/Graphics/SVG/1.1/DTD/svg11.dtd"><svg viewBox="0 0 818 289" version="1.1" xmlns="http://www.w3.org/2000/svg" xmlnsXlink="http://www.w3.org/1999/xlink" xml:space="preserve" style="fill-rule:evenodd;clip-rule:evenodd;stroke-linejoin:round;stroke-miterlimit:2;"><g><g><g><g><text x="306.26px" y="128.866px" style="font-family:'ArialMT', 'Arial', sans-serif;font-size:170.788px;">D</text></g><g><text x="420.641px" y="128.866px" style="font-family:'ArialMT', 'Arial', sans-serif;font-size:170.788px;">esign</text></g></g></g><g><g><g><text x="306.26px" y="279.43px" style="font-family:'ArialMT', 'Arial', sans-serif;font-size:170.788px;">D</text></g><g><text x="420.641px" y="279.43px" style="font-family:'ArialMT', 'Arial', sans-serif;font-size:170.788px;">esk</text></g></g></g><g><g><rect x="6.773" y="6.613" width="278.925" height="274.818" style="fill:#155263;"/><path d="M292.311,6.613c0,-3.652 -2.961,-6.613 -6.613,-6.613l-278.925,0c-3.652,0 -6.612,2.961 -6.612,6.613l0,274.818c0,3.652 2.96,6.612 6.612,6.612l278.925,0c3.652,0 6.613,-2.96 6.613,-6.612l0,-274.818Zm-278.926,6.613l0,261.592l265.701,0l0,-261.592l-265.701,0Z"/></g><g><path d="M146.49,143.849l-136.63,-136.431l274.186,0.934l-137.556,135.497Z" style="fill:#ffc93c;"/><path d="M141.817,148.528c2.57,2.565 6.727,2.58 9.313,0.032l137.556,-135.496c1.909,-1.881 2.494,-4.728 1.482,-7.209c-1.011,-2.481 -3.42,-4.106 -6.1,-4.116l-274.185,-0.934c-2.68,-0.009 -5.1,1.6 -6.129,4.074c-1.028,2.474 -0.462,5.325 1.433,7.219l136.63,136.43Zm4.705,-13.992l121.443,-119.626l-242.07,-0.824l120.627,120.45Z"/></g><g><path d="M43.029,47.129l209.111,-0.714c3.65,-0.012 6.603,-2.985 6.59,-6.635c-0.012,-3.649 -2.985,-6.602 -6.636,-6.59l-209.111,0.713c-3.649,0.013 -6.602,2.987 -6.59,6.636c0.013,3.65 2.986,6.603 6.636,6.59Z"/></g><g><path d="M77.435,81.471l139.928,-0.785c3.649,-0.02 6.595,-3 6.574,-6.649c-0.02,-3.65 -3,-6.596 -6.649,-6.576l-139.927,0.785c-3.649,0.02 -6.595,3 -6.575,6.649c0.02,3.65 3,6.596 6.649,6.576Z"/></g><g><path d="M147.175,143.251l140.111,-135.087l-1.531,271.744l-138.58,-136.657Z" style="fill:#ff9800;"/><path d="M142.583,138.487c-1.285,1.238 -2.014,2.943 -2.024,4.727c-0.011,1.783 0.7,3.496 1.97,4.748l138.58,136.658c1.895,1.868 4.725,2.42 7.183,1.399c2.457,-1.02 4.065,-3.412 4.08,-6.074l1.531,-271.744c0.015,-2.661 -1.566,-5.072 -4.012,-6.12c-2.446,-1.047 -5.282,-0.528 -7.198,1.319l-140.11,135.087Zm14.071,4.817l122.573,120.872l1.354,-240.355l-123.927,119.483Z"/></g><g><path d="M146.311,270.664l134.824,-131.665c2.611,-2.55 6.802,-2.5 9.352,0.111c2.549,2.611 2.499,6.801 -0.112,9.351l-139.445,136.178c-2.57,2.508 -6.673,2.508 -9.242,-0.002l-139.698,-136.486c-2.61,-2.55 -2.659,-6.741 -0.108,-9.351c2.55,-2.61 6.74,-2.659 9.35,-0.108l135.079,131.972Z"/></g><path d="M183.852,99.011l-74.641,-0.167c-3.649,-0.008 -6.619,2.949 -6.627,6.598c-0.009,3.65 2.948,6.619 6.598,6.628l74.641,0.167c3.649,0.007 6.618,-2.949 6.627,-6.599c0.008,-3.649 -2.948,-6.618 -6.598,-6.627Z"/></g></g></svg>