<svg width="388" height="589" viewBox="0 0 388 589" fill="none" xmlns="http://www.w3.org/2000/svg">
    <path d="M50.0687 478.611C51.3254 481.721 52.7143 484.83 54.2356 487.808C76.8558 532.201 122.758 560.187 171.702 565.215C210.857 569.185 248.954 556.416 281.694 535.575C314.368 514.801 340.559 485.558 376.871 470.341C428.064 448.971 485.143 432.101 525.291 386.847C570.928 335.44 588.522 257.503 567.026 191.74C546.125 127.564 476.744 106.79 422.839 78.5395C325.942 27.6622 191.742 -6.14578 90.8776 53.597C-29.9618 125.116 -8.003 287.474 30.2926 400.145C39.0232 425.815 40.0814 453.47 50.0687 478.611Z" fill="url(#paint0_linear)"/>
    <path d="M111.712 174.406L111.514 173.149H110.257C85.7848 173.149 77.8479 165.276 77.7817 165.21L76.7235 164.019L75.6652 165.21C75.5991 165.276 67.7283 173.149 43.19 173.149H41.9334L41.7349 174.406C41.6688 174.803 36.5098 214.234 76.0621 234.479L76.7235 234.81L77.3849 234.479C117.069 214.234 111.712 174.803 111.712 174.406ZM105.759 198.819C100.865 212.977 91.0761 223.96 76.6573 231.502C62.2386 223.96 52.4498 212.977 47.5553 198.819C43.9837 188.432 44.1821 179.368 44.4467 176.126C64.8181 175.861 73.8794 170.436 76.6573 168.187C79.4353 170.37 88.4965 175.861 108.868 176.126C109.133 179.434 109.331 188.432 105.759 198.819Z" fill="#4F5E63"/>
    <path d="M150.537 123.727L149.148 120.088C147.891 119.956 146.701 119.625 145.51 119.228L142.666 121.875L134.465 115.986L136.052 112.414C135.258 111.421 134.597 110.363 134.068 109.238L130.166 109.106L128.512 99.1154L132.15 97.726C132.282 96.469 132.613 95.2781 133.01 94.0872L130.364 91.2423L136.251 82.9723L139.822 84.5601C140.814 83.7662 141.873 83.1046 142.997 82.5753L143.129 78.6718L153.116 77.0178L154.505 80.6566C155.762 80.789 156.953 81.1198 158.143 81.5167L160.987 78.8703L169.189 84.7586L167.601 88.3313C168.395 89.3237 169.056 90.3822 169.586 91.507L173.488 91.6393L175.141 101.629L171.504 103.019C171.305 104.276 171.041 105.467 170.644 106.658L173.289 109.503L167.403 117.773L163.831 116.185C162.839 116.979 161.781 117.64 160.657 118.17L160.524 122.073L150.537 123.727ZM144.849 116.052L145.643 116.383C147.098 116.979 148.685 117.309 150.272 117.442L151.132 117.508L152.323 120.618L157.812 119.691L157.945 116.383L158.738 116.052C160.194 115.391 161.516 114.531 162.773 113.538L163.434 113.009L166.477 114.398L169.718 109.9L167.403 107.452L167.734 106.658C168.329 105.202 168.66 103.614 168.792 102.026L168.858 101.166L171.967 99.9755L171.041 94.4842L167.734 94.3518L167.403 93.5579C166.742 92.1024 165.882 90.7792 164.89 89.5221L164.36 88.8605L165.749 85.8172L161.252 82.5753L158.805 84.8247L158.011 84.4939C156.556 83.8985 154.968 83.5677 153.381 83.4354L152.521 83.3692L151.331 80.2597L145.841 81.1859L145.709 84.4939L144.915 84.8247C143.46 85.4864 142.137 86.3464 140.88 87.3388L140.219 87.8681L137.177 86.4788L133.936 90.9777L136.251 93.4256L135.92 94.2195C135.325 95.675 134.994 97.2629 134.862 98.8507L134.795 99.7108L131.687 100.902L132.613 106.393L135.92 106.525L136.251 107.319C136.912 108.775 137.772 110.098 138.764 111.355L139.293 112.017L137.904 115.06L142.402 118.302L144.849 116.052ZM151.728 111.421C149.479 111.421 147.23 110.693 145.378 109.37C140.417 105.864 139.293 98.9831 142.799 94.021C146.304 89.059 153.183 87.9343 158.143 91.4408C160.524 93.161 162.112 95.6751 162.641 98.5861C163.104 101.497 162.442 104.408 160.789 106.79C159.069 109.172 156.556 110.76 153.646 111.289C152.918 111.355 152.323 111.421 151.728 111.421ZM151.728 92.1686C149.148 92.1686 146.635 93.3594 145.047 95.6089C143.791 97.3952 143.261 99.5785 143.658 101.762C144.055 103.945 145.18 105.798 146.965 107.055C148.751 108.312 150.934 108.841 153.116 108.444C155.299 108.047 157.151 106.922 158.408 105.136C159.664 103.35 160.194 101.166 159.797 98.9831C159.4 96.7998 158.275 94.9473 156.49 93.6902C155.035 92.6978 153.381 92.1686 151.728 92.1686Z" fill="#4F5E63"/>
    <path d="M145.576 380.429C142.401 371.498 138.764 361.441 142.798 351.12C148.222 337.227 136.713 330.081 126.594 323.664C117.863 318.239 109.662 313.078 112.44 304.543C115.482 295.281 115.284 288.136 111.844 283.438C108.934 279.469 103.775 277.351 96.8964 277.418C91.4067 277.484 86.5123 270.735 81.2872 263.656C75.1361 255.32 68.8527 246.719 60.9158 248.638C59.5268 248.969 58.4024 249.763 57.741 251.02C54.9631 256.246 59.3284 268.684 64.0244 281.917C69.0511 296.207 74.8054 312.35 71.0353 319.231C66.9346 326.773 74.3424 333.654 82.2131 340.998C90.5469 348.739 100.005 357.538 97.4917 368.587C95.1106 378.908 94.5815 382.745 96.0366 384.994C97.161 386.781 99.4759 387.178 102.981 387.839C105.362 388.302 108.405 388.832 112.109 390.023C128.049 394.985 132.679 405.306 132.745 405.438L132.943 405.901L133.406 405.835C141.079 404.644 145.576 402.461 147.693 398.954C147.825 398.756 147.891 398.557 148.023 398.359C150.272 393.661 148.089 387.508 145.576 380.429Z" fill="#FFBE55"/>
    <path d="M104.833 360.714C107.479 364.815 109.397 368.388 109.199 373.416C109.066 378.114 108.339 382.745 107.942 387.376C107.876 388.369 107.81 389.295 107.743 390.221C106.421 389.096 105.164 387.972 103.841 386.847C103.246 386.781 102.651 386.781 101.989 386.781C103.841 388.302 105.759 389.956 107.611 391.61C107.413 394.852 107.347 398.094 107.347 401.336C107.347 403.255 107.28 405.306 107.413 407.224C105.693 406.166 103.907 405.107 102.254 404.049C97.0947 400.873 92.2665 397.896 88.5626 396.308C85.7185 395.117 82.5437 394.058 79.5013 393.066C71.5644 390.486 63.429 387.839 60.7173 382.216C59.3283 379.305 59.4606 375.798 61.1141 371.564C65.281 360.647 61.3787 358.795 54.8307 355.619C50.0686 353.304 43.5868 350.194 37.1049 342.321C34.2609 338.881 31.7475 335.903 29.4987 333.323C22.8185 325.45 19.1146 321.15 19.5776 318.636C19.7099 318.04 20.0406 317.511 20.702 316.981C21.0327 316.717 21.4295 316.452 21.9587 316.188C24.472 314.798 26.9854 315.857 29.8294 317.048C33.6656 318.635 38.3616 320.686 44.9096 317.312C50.0686 314.666 55.8228 312.218 59.2622 314.203C61.6432 315.526 63.0322 318.966 63.4952 324.59C63.6274 326.376 64.2227 327.633 65.2148 328.361C66.6699 329.42 68.9187 329.287 71.4982 328.758C73.284 331.206 75.599 332.397 78.3769 333.389C82.2792 334.779 85.1894 336.036 88.0334 339.211C94.1184 346.092 100.005 353.105 104.833 360.714Z" fill="#0B4870"/>
    <path d="M83.7343 371.63C79.7659 368.984 76.3266 362.566 73.0195 356.347C68.522 347.878 63.826 339.145 57.4103 339.344C47.0923 339.608 37.8987 327.435 37.7664 327.369L36.9066 328.03C37.3035 328.56 46.5632 340.733 57.4103 340.468C63.1645 340.336 67.7283 348.738 72.0274 356.942C75.4006 363.228 78.9061 369.777 83.0729 372.622C85.5863 374.276 90.2162 377.651 95.7058 381.951C95.7058 381.488 95.7058 381.025 95.7058 380.562C90.8776 376.526 86.5784 373.482 83.7343 371.63Z" fill="#C9C9C9"/>
    <path d="M150.471 405.107C130.099 400.013 129.835 389.03 129.57 378.444C129.372 369.777 129.173 361.574 118.128 356.545C103.511 349.863 103.18 337.491 102.849 326.575C102.585 318.437 102.386 310.762 96.3012 306.594C81.6841 296.604 69.3158 272.389 69.1835 272.125L70.3079 271.529C70.4401 271.794 82.6101 295.678 97.0288 305.536C103.643 310.035 103.907 318.04 104.106 326.509C104.437 337.557 104.767 349.069 118.657 355.355C130.364 360.714 130.628 369.711 130.827 378.378C131.091 388.964 131.356 399.02 150.801 403.85L150.471 405.107Z" fill="#C9C9C9"/>
    <path d="M123.022 395.315H457.629V153.698C457.629 150.257 454.851 147.412 451.346 147.412H129.305C125.866 147.412 123.022 150.191 123.022 153.698V395.315Z" fill="#F7F7F7"/>
    <path d="M134.841 350.269L445.174 350.269V159.529L134.841 159.529V350.269Z" fill="#0B4870" stroke="#C9C9C9" stroke-width="0.5" stroke-miterlimit="10"/>
    <path d="M457.629 359.523H290.358H123.154L86.5122 496.409H291.483H494.205L457.629 359.523Z" fill="#F2F2F2"/>
    <path d="M135.787 383.539H156.357C157.217 383.539 157.878 384.201 157.68 384.928L155.696 393.86C155.563 394.389 155.034 394.786 154.373 394.786H133.472C132.612 394.786 131.951 394.125 132.149 393.331L134.464 384.399C134.597 383.936 135.126 383.539 135.787 383.539Z" fill="#0B4870" stroke="#C9C9C9" stroke-width="0.5" stroke-miterlimit="10"/>
    <path d="M165.749 383.539H181.292L179.242 394.852H163.368L165.749 383.539Z" fill="#0B4870" stroke="#C9C9C9" stroke-width="0.5" stroke-miterlimit="10"/>
    <path d="M189.031 383.539H204.574L202.987 394.852H187.113L189.031 383.539Z" fill="#0B4870" stroke="#C9C9C9" stroke-width="0.5" stroke-miterlimit="10"/>
    <path d="M212.378 383.539H227.921L226.731 394.852H210.857L212.378 383.539Z" fill="#0B4870" stroke="#C9C9C9" stroke-width="0.5" stroke-miterlimit="10"/>
    <path d="M235.66 383.539H251.203L250.475 394.852H234.602L235.66 383.539Z" fill="#0B4870" stroke="#C9C9C9" stroke-width="0.5" stroke-miterlimit="10"/>
    <path d="M258.941 383.539H274.485L274.22 394.852H258.346L258.941 383.539Z" fill="#0B4870" stroke="#C9C9C9" stroke-width="0.5" stroke-miterlimit="10"/>
    <path d="M391.091 383.539H375.548L377.135 394.852H393.009L391.091 383.539Z" fill="#0B4870" stroke="#C9C9C9" stroke-width="0.5" stroke-miterlimit="10"/>
    <path d="M367.744 383.539H352.2L353.391 394.852H369.265L367.744 383.539Z" fill="#0B4870" stroke="#C9C9C9" stroke-width="0.5" stroke-miterlimit="10"/>
    <path d="M344.462 383.539H328.919L329.646 394.852H345.52L344.462 383.539Z" fill="#0B4870" stroke="#C9C9C9" stroke-width="0.5" stroke-miterlimit="10"/>
    <path d="M321.18 383.539H305.637L305.902 394.852H321.776L321.18 383.539Z" fill="#0B4870" stroke="#C9C9C9" stroke-width="0.5" stroke-miterlimit="10"/>
    <path d="M282.289 383.539H297.832L298.031 394.852H282.289V383.539Z" fill="#0B4870" stroke="#C9C9C9" stroke-width="0.5" stroke-miterlimit="10"/>
    <path d="M128.975 403.255H161.384L159.532 414.899H126.461L128.975 403.255Z" fill="#0B4870" stroke="#C9C9C9" stroke-width="0.5" stroke-miterlimit="10"/>
    <path d="M402.335 403.255H386.329L388.115 414.899H404.518L402.335 403.255Z" fill="#0B4870" stroke="#C9C9C9" stroke-width="0.5" stroke-miterlimit="10"/>
    <path d="M378.26 403.255H362.254L363.577 414.899H379.98L378.26 403.255Z" fill="#0B4870" stroke="#C9C9C9" stroke-width="0.5" stroke-miterlimit="10"/>
    <path d="M354.184 403.255H338.178L339.104 414.899H355.441L354.184 403.255Z" fill="#0B4870" stroke="#C9C9C9" stroke-width="0.5" stroke-miterlimit="10"/>
    <path d="M330.109 403.255H314.103L314.566 414.899H330.903L330.109 403.255Z" fill="#0B4870" stroke="#C9C9C9" stroke-width="0.5" stroke-miterlimit="10"/>
    <path d="M124.08 423.963H157.283L154.836 435.541H121.038L124.08 423.963Z" fill="#0B4870" stroke="#C9C9C9" stroke-width="0.5" stroke-miterlimit="10"/>
    <path d="M165.551 423.963H182.152L180.234 435.541H163.302L165.551 423.963Z" fill="#0B4870" stroke="#C9C9C9" stroke-width="0.5" stroke-miterlimit="10"/>
    <path d="M190.486 423.963H207.087H314.897L315.36 435.541H188.634L190.486 423.963Z" fill="#0B4870" stroke="#C9C9C9" stroke-width="0.5" stroke-miterlimit="10"/>
    <path d="M323.231 423.963H339.832L340.758 435.541H323.826L323.231 423.963Z" fill="#0B4870" stroke="#C9C9C9" stroke-width="0.5" stroke-miterlimit="10"/>
    <path d="M348.1 423.963H364.701L366.09 435.541H349.158L348.1 423.963Z" fill="#0B4870" stroke="#C9C9C9" stroke-width="0.5" stroke-miterlimit="10"/>
    <path d="M373.035 423.963H389.636L391.422 435.541H374.556L373.035 423.963Z" fill="#0B4870" stroke="#C9C9C9" stroke-width="0.5" stroke-miterlimit="10"/>
    <path d="M306.1 403.255H290.16V414.899H306.365L306.1 403.255Z" fill="#0B4870" stroke="#C9C9C9" stroke-width="0.5" stroke-miterlimit="10"/>
    <path d="M282.025 403.255H265.952L265.49 414.899H281.892L282.025 403.255Z" fill="#0B4870" stroke="#C9C9C9" stroke-width="0.5" stroke-miterlimit="10"/>
    <path d="M257.949 403.255H241.877L240.951 414.899H257.354L257.949 403.255Z" fill="#0B4870" stroke="#C9C9C9" stroke-width="0.5" stroke-miterlimit="10"/>
    <path d="M233.874 403.255H217.802L216.413 414.899H232.816L233.874 403.255Z" fill="#0B4870" stroke="#C9C9C9" stroke-width="0.5" stroke-miterlimit="10"/>
    <path d="M209.799 403.255H193.727L191.875 414.899H208.278L209.799 403.255Z" fill="#0B4870" stroke="#C9C9C9" stroke-width="0.5" stroke-miterlimit="10"/>
    <path d="M185.724 403.255H169.652L167.403 414.899H183.74L185.724 403.255Z" fill="#0B4870" stroke="#C9C9C9" stroke-width="0.5" stroke-miterlimit="10"/>
    <path d="M136.515 376.46L139.161 366.403H146.701L144.253 376.46H136.515Z" fill="#0B4870" stroke="#C9C9C9" stroke-width="0.5" stroke-miterlimit="10"/>
    <path d="M154.24 366.403H169.321L167.27 376.46H151.859L154.24 366.403Z" fill="#0B4870" stroke="#C9C9C9" stroke-width="0.5" stroke-miterlimit="10"/>
    <path d="M176.927 366.403H192.007L190.287 376.46H174.943L176.927 366.403Z" fill="#0B4870" stroke="#C9C9C9" stroke-width="0.5" stroke-miterlimit="10"/>
    <path d="M199.547 366.403H214.627L213.305 376.46H197.96L199.547 366.403Z" fill="#0B4870" stroke="#C9C9C9" stroke-width="0.5" stroke-miterlimit="10"/>
    <path d="M222.167 366.403H237.247L236.321 376.46H220.977L222.167 366.403Z" fill="#0B4870" stroke="#C9C9C9" stroke-width="0.5" stroke-miterlimit="10"/>
    <path d="M244.787 366.403H259.867L259.338 376.46H243.994L244.787 366.403Z" fill="#0B4870" stroke="#C9C9C9" stroke-width="0.5" stroke-miterlimit="10"/>
    <path d="M267.408 366.403H282.488L282.355 376.46H267.011L267.408 366.403Z" fill="#0B4870" stroke="#C9C9C9" stroke-width="0.5" stroke-miterlimit="10"/>
    <path d="M290.028 366.403H305.108L305.373 376.46H290.028V366.403Z" fill="#0B4870" stroke="#C9C9C9" stroke-width="0.5" stroke-miterlimit="10"/>
    <path d="M312.648 366.403H327.728L328.389 376.46H313.045L312.648 366.403Z" fill="#0B4870" stroke="#C9C9C9" stroke-width="0.5" stroke-miterlimit="10"/>
    <path d="M335.268 366.403H350.414L351.406 376.46H336.062L335.268 366.403Z" fill="#0B4870" stroke="#C9C9C9" stroke-width="0.5" stroke-miterlimit="10"/>
    <path d="M357.955 366.403H373.035L374.49 376.46H359.145L357.955 366.403Z" fill="#0B4870" stroke="#C9C9C9" stroke-width="0.5" stroke-miterlimit="10"/>
    <path d="M380.575 366.403H395.655L397.507 376.46H382.162L380.575 366.403Z" fill="#0B4870" stroke="#C9C9C9" stroke-width="0.5" stroke-miterlimit="10"/>
    <path d="M483.556 507.06H97.1609C91.2744 507.06 86.5122 502.297 86.5122 496.408H494.205C494.205 502.297 489.442 507.06 483.556 507.06Z" fill="#D3D3D3"/>
    <path d="M337.782 452.147C337.385 449.765 335.268 447.979 332.887 447.979H290.425H247.896C245.449 447.979 243.399 449.765 243.002 452.147L237.71 484.235C237.181 487.278 239.562 490.057 242.605 490.057H290.359H338.112C341.221 490.057 343.536 487.278 343.007 484.235L337.782 452.147Z" fill="#D3D3D3"/>
    <path d="M190.354 175.729H155.762V179.302H190.354V175.729Z" fill="#F7F7F7"/>
    <path d="M225.011 202.392H200.076V205.964H225.011V202.392Z" fill="#F7F7F7"/>
    <path d="M245.449 202.392H228.914V205.964H245.449V202.392Z" fill="#F7F7F7"/>
    <path d="M172.694 269.478H156.158V273.051H172.694V269.478Z" fill="#F7F7F7"/>
    <path d="M288.771 202.392H248.756V205.964H288.771V202.392Z" fill="#F7F7F7"/>
    <path d="M181.887 256.048H156.158V259.62H181.887V256.048Z" fill="#F7F7F7"/>
    <path d="M207.682 282.777H192.007V286.349H207.682V282.777Z" fill="#F7F7F7"/>
    <path d="M187.245 282.777H156.158V286.349H187.245V282.777Z" fill="#F7F7F7"/>
    <path d="M173.289 296.141H156.158V299.714H173.289V296.141Z" fill="#F7F7F7"/>
    <path d="M221.638 175.729H197.1V179.302H221.638V175.729Z" fill="#F7F7F7"/>
    <path d="M221.638 215.756H197.1V219.329H221.638V215.756Z" fill="#F7F7F7"/>
    <path d="M195.314 229.054H184.797V232.627H195.314V229.054Z" fill="#F7F7F7"/>
    <path d="M197.893 242.617H174.347V246.19H197.893V242.617Z" fill="#F7F7F7"/>
    <path d="M234.007 242.617H201.465V246.19H234.007V242.617Z" fill="#F7F7F7"/>
    <path d="M180.697 229.187H156.158V232.759H180.697V229.187Z" fill="#F7F7F7"/>
    <path d="M170.709 242.617H156.158V246.19H170.709V242.617Z" fill="#F7F7F7"/>
    <path d="M214.032 229.187H200.274V232.759H214.032V229.187Z" fill="#F7F7F7"/>
    <path d="M170.379 309.439H156.622V313.012H170.379V309.439Z" fill="#F7F7F7"/>
    <path d="M180.631 202.392H156.092V205.964H180.631V202.392Z" fill="#F7F7F7"/>
    <path d="M202.325 269.478H177.786V273.051H202.325V269.478Z" fill="#F7F7F7"/>
    <path d="M202.656 296.141H178.117V299.714H202.656V296.141Z" fill="#F7F7F7"/>
    <path d="M246.242 296.141H221.704V299.714H246.242V296.141Z" fill="#F7F7F7"/>
    <path d="M191.081 215.756H156.092V219.329H191.081V215.756Z" fill="#F7F7F7"/>
    <path d="M344.594 175.729H320.056V179.302H344.594V175.729Z" fill="#F7F7F7"/>
    <path d="M257.156 309.439H232.617V313.012H257.156V309.439Z" fill="#F7F7F7"/>
    <path d="M368.603 175.729H352.2V179.302H368.603V175.729Z" fill="#F7F7F7"/>
    <path d="M259.537 175.729H228.252V179.302H259.537V175.729Z" fill="#F7F7F7"/>
    <path d="M381.368 189.094H350.083V192.666H381.368V189.094Z" fill="#F7F7F7"/>
    <path d="M343.006 202.392H311.722V205.964H343.006V202.392Z" fill="#F7F7F7"/>
    <path d="M302.33 215.756H271.045V219.329H302.33V215.756Z" fill="#F7F7F7"/>
    <path d="M369.132 202.392H346.909V205.964H369.132V202.392Z" fill="#F7F7F7"/>
    <path d="M313.905 175.729H282.62V179.302H313.905V175.729Z" fill="#F7F7F7"/>
    <path d="M265.291 215.756H246.97V219.329H265.291V215.756Z" fill="#F7F7F7"/>
    <path d="M250.938 269.677H232.617V273.249H250.938V269.677Z" fill="#F7F7F7"/>
    <path d="M276.733 175.729H265.291V179.302H276.733V175.729Z" fill="#F7F7F7"/>
    <path d="M239.695 215.756H228.252V219.329H239.695V215.756Z" fill="#F7F7F7"/>
    <path d="M173.686 189.094H155.762V192.666H173.686V189.094Z" fill="#F7F7F7"/>
    <path d="M217.736 256.114H203.582V259.687H217.736V256.114Z" fill="#F7F7F7"/>
    <path d="M183.872 189.094H178.117V192.666H183.872V189.094Z" fill="#F7F7F7"/>
    <path d="M344.594 189.094H296.774V192.666H344.594V189.094Z" fill="#F7F7F7"/>
    <path d="M298.758 296.141H250.938V299.714H298.758V296.141Z" fill="#F7F7F7"/>
    <path d="M193.991 189.094H188.104V192.666H193.991V189.094Z" fill="#F7F7F7"/>
    <path d="M292.343 189.094H276.733V192.666H292.343V189.094Z" fill="#F7F7F7"/>
    <path d="M308.018 202.392H292.409V205.964H308.018V202.392Z" fill="#F7F7F7"/>
    <path d="M227.591 309.439H211.981V313.012H227.591V309.439Z" fill="#F7F7F7"/>
    <path d="M272.633 189.094H239.364V192.666H272.633V189.094Z" fill="#F7F7F7"/>
    <path d="M227.789 269.677H208.344V273.249H227.789V269.677Z" fill="#F7F7F7"/>
    <path d="M216.876 296.141H207.153V299.714H216.876V296.141Z" fill="#F7F7F7"/>
    <path d="M234.602 189.094H223.159V192.666H234.602V189.094Z" fill="#F7F7F7"/>
    <path d="M196.108 202.392H184.665V205.964H196.108V202.392Z" fill="#F7F7F7"/>
    <path d="M198.356 256.114H186.914V259.687H198.356V256.114Z" fill="#F7F7F7"/>
    <path d="M218.86 189.094H198.886V192.666H218.86V189.094Z" fill="#F7F7F7"/>
    <path d="M366.354 215.888C366.354 215.888 372.175 225.746 374.622 227.334C377.929 229.517 375.879 231.701 374.291 231.767C372.704 231.767 364.635 232.362 362.849 230.311C361.063 228.26 360.203 222.24 358.55 220.652C356.896 219.064 355.177 212.779 359.343 211.257C362.981 209.868 366.354 215.888 366.354 215.888Z" fill="#FFB750"/>
    <path d="M363.775 211.588C363.775 211.588 370.455 223.166 371.58 224.82C372.704 226.54 369.397 226.54 367.347 225.746C365.296 224.952 360.138 216.682 359.41 215.161C358.55 213.374 359.278 211.323 359.278 211.323L363.775 211.588Z" fill="#FFE3CA"/>
    <path d="M357.029 217.741L358.616 229.584L359.41 229.65L359.145 221.115L357.029 217.741Z" fill="#FFB750"/>
    <path d="M308.613 215.888C308.613 215.888 314.434 225.746 316.881 227.334C320.188 229.517 318.138 231.701 316.55 231.767C314.963 231.767 306.894 232.362 305.108 230.311C303.322 228.26 302.462 222.24 300.809 220.652C299.155 219.064 297.369 212.58 301.602 211.257C305.306 210.066 308.613 215.888 308.613 215.888Z" fill="#FFB750"/>
    <path d="M306.431 211.588C306.431 211.588 312.714 223.1 313.905 224.82C315.029 226.54 311.722 226.54 309.672 225.746C307.621 224.952 302.462 216.682 301.735 215.161C300.875 213.374 301.602 211.323 301.602 211.323L306.431 211.588Z" fill="#FFE3CA"/>
    <path d="M299.354 217.741L300.875 229.584L301.735 229.65L301.47 221.115L299.354 217.741Z" fill="#FFB750"/>
    <path d="M282.818 126.109L335.467 150.125C335.467 150.125 341.353 152.044 342.014 158.594C344.065 178.971 359.277 211.257 359.277 211.257C364.172 213.639 363.775 211.588 363.775 211.588C360.666 201.664 356.962 160.909 355.573 144.568C355.309 141.127 355.11 138.745 355.044 137.952C355.044 137.422 354.449 136.761 353.457 135.967C346.247 130.078 316.484 117.971 316.484 117.971C294.327 117.376 282.818 126.109 282.818 126.109Z" fill="#FFE3CA"/>
    <path d="M272.897 136.43C274.551 150.654 294.856 149.066 294.856 149.066H319.461C319.461 149.066 312.979 163.489 310.465 175.597C307.82 188.498 301.536 211.257 301.536 211.257C301.536 211.257 301.933 212.051 306.431 211.588C306.431 211.588 325.744 173.083 333.152 163.357C334.739 161.306 339.303 149.926 340.097 143.178C340.361 140.929 340.229 139.142 339.369 138.415C338.509 137.687 336.525 136.364 333.945 134.71C326.207 129.814 312.846 122.338 305.373 120.684C295.385 118.434 279.578 114.2 279.578 114.2C279.578 114.2 271.244 122.205 272.897 136.43Z" fill="#FFE3CA"/>
    <path d="M289.631 26.7359C289.631 26.7359 285.927 19.7229 287.713 12.3129C289.499 4.83679 296.443 -2.57318 306.563 0.867164C316.682 4.3075 324.884 12.1144 318.799 21.2446C312.714 30.3085 324.289 34.4766 321.312 38.7771C318.336 43.0775 319.46 47.6426 320.717 48.635C321.974 49.6274 326.008 53.2 325.545 57.5005C325.082 61.7347 305.901 45.1285 305.901 45.1285C305.901 45.1285 295.517 24.0233 289.631 26.7359Z" fill="#0E538C"/>
    <path d="M320.519 116.185C320.519 116.185 318.997 123.595 279.644 114.266C279.644 114.266 292.806 109.899 320.519 116.185Z" fill="#EB4747"/>
    <path d="M279.181 116.317C278.586 117.508 277.99 118.633 277.329 119.824C291.681 120.22 306.1 120.684 320.453 121.081C318.204 113.472 318.931 103.151 319.328 95.3442C319.791 85.7509 325.083 79.1349 324.553 69.4755C327.398 69.9386 327.861 70.0047 330.705 70.4679C326.339 58.0297 324.884 51.8768 311.325 47.1133C306.894 45.5254 304.05 45.2608 299.288 45.6577C283.612 46.9809 278.916 47.1133 271.178 61.3377C283.215 63.2564 281.231 67.5568 284.869 79.598C286.655 85.4201 288.507 91.97 287.581 98.1229C286.655 104.144 279.181 110.826 279.181 116.317Z" fill="#C9C9C9"/>
    <path d="M304.182 50.0904C297.767 48.8995 299.156 45.3269 299.156 45.3269C299.156 45.3269 299.42 43.3421 299.552 40.7618C299.552 40.1002 299.619 39.4386 299.619 38.7109C299.619 37.6523 299.552 36.5937 299.42 35.5352C298.891 31.2347 311.061 33.815 311.061 33.815C311.061 33.815 310.333 42.5482 312.053 45.1284C313.707 47.7748 310.598 51.3475 304.182 50.0904Z" fill="#FFE3CA"/>
    <path d="M291.946 45.3269C291.946 45.3269 304.91 60.2792 309.672 63.7195C309.672 63.7195 315.162 58.7575 311.788 45.6577C311.788 45.6577 305.571 42.482 291.946 45.3269Z" fill="#FFE3CA"/>
    <path d="M292.343 9.33567C292.343 9.33567 285.596 22.3031 292.277 34.5428C298.957 46.7824 312.053 29.1838 312.846 27.1328C313.706 25.0818 318.204 13.3714 309.275 9.86495C300.346 6.29229 294.261 5.82917 292.343 9.33567Z" fill="#FFE3CA"/>
    <path d="M305.306 35.866C305.306 35.866 304.116 38.4463 299.552 40.7619C299.552 40.1003 299.618 39.4387 299.618 38.7109C299.618 38.7109 302.727 38.3801 305.306 35.866Z" fill="#FCD2B1"/>
    <path d="M237.38 104.673C237.38 104.673 234.205 106.062 232.684 105.467C231.163 104.805 228.848 104.673 228.12 104.673C227.128 104.673 224.019 103.548 224.086 104.805C224.152 105.996 229.112 106.856 230.104 107.253C231.096 107.65 227.062 109.833 226.665 110.826C226.268 111.818 230.898 118.302 233.478 116.449C236.057 114.597 237.446 110.892 237.975 110.627C238.504 110.363 239.893 109.37 239.893 109.37L237.38 104.673Z" fill="#FFE3CA"/>
    <path d="M227.194 110.23C227.194 110.23 219.72 116.449 219.588 117.309C219.455 118.17 219.852 118.567 220.58 117.971C221.307 117.442 227.988 112.149 227.988 112.149C227.988 112.149 220.514 121.014 220.249 121.676C220.117 122.073 220.844 122.867 221.241 122.602C221.638 122.338 229.641 114.001 229.641 114.001C229.641 114.001 222.63 122.271 222.63 122.933C222.564 123.462 223.424 124.058 224.019 123.462C224.614 122.867 231.559 115.589 231.559 115.589C231.559 115.589 226.863 121.941 227.194 122.536C227.392 122.867 227.988 123.595 229.112 121.941C230.236 120.287 233.411 116.582 233.411 116.582L227.194 110.23Z" fill="#FFE3CA"/>
    <path d="M316.881 149H294.856C294.856 149 274.551 150.654 272.897 136.364C271.244 122.139 279.578 114.2 279.578 114.2C279.578 114.2 290.292 117.045 299.684 119.294C304.38 118.302 310.002 117.64 316.616 117.839C316.616 117.839 356.301 130.938 355.11 137.885C355.11 137.951 338.509 129.086 316.881 149Z" fill="#0E538C"/>
    <path d="M302.528 124.389L344.594 123.727L323.363 134.511L302.528 124.389Z" fill="#F2F2F2"/>
    <path d="M315.624 118.963C315.624 118.963 306.166 122.602 294.592 119.294L294.062 114.994L317.939 116.317L315.624 118.963Z" fill="#C9C9C9"/>
    <path d="M323.363 134.511L302.528 126.44V124.389L325.016 132.46L323.363 134.511Z" fill="#D3D3D3"/>
    <path d="M315.426 121.014C315.294 122.536 316.881 123.661 318.336 123.065L320.783 122.007C321.511 121.676 321.974 120.948 321.841 120.154C320.849 113.803 318.667 89.0589 321.841 84.7585C323.032 83.1707 323.76 81.7813 324.156 80.5904C326.273 86.0156 328.852 93.0286 329.911 96.7997L349.753 123.264L356.433 124.984C348.099 104.937 341.419 94.3518 341.419 94.3518C340.096 90.8453 336.392 80.2596 333.085 70.8648C330.969 64.9104 329.117 59.4191 328.059 56.508C327.53 54.9863 326.537 53.7293 325.149 52.9354C322.04 51.0829 316.947 48.1718 312.317 45.9224H312.251C312.119 45.8562 311.987 45.79 311.788 45.7239C320.651 59.0221 317.212 96.7997 315.426 121.014C315.426 120.948 315.426 120.948 315.426 121.014Z" fill="#FFBE55"/>
    <path d="M282.62 46.7825C279.776 47.2456 272.765 54.0601 269.061 60.9408C264.828 68.8139 260.463 77.7455 257.222 80.6566C251.269 86.0817 234.536 105.202 233.742 104.739C233.411 104.54 238.306 110.429 238.967 110.693C239.298 110.826 266.416 87.2726 269.061 83.7C271.509 80.3258 278.123 66.0351 280.107 66.3659C280.239 66.6967 282.686 71.9234 284.935 79.5319C285.001 79.6642 285.001 79.7965 285.067 79.9288C286.655 85.2217 286.522 91.0438 285.663 97.5275C285.001 102.423 281.364 110.429 279.181 114.332C278.916 114.795 278.982 115.722 279.247 116.383C279.445 116.78 279.644 117.111 279.975 117.243L287.978 120.22L289.83 120.882C291.152 121.411 292.607 121.147 293.666 120.353C294.526 119.757 295.187 118.765 295.319 117.574C297.105 103.945 299.354 89.9852 301.14 84.7585C309.01 61.7347 298.097 44.4007 298.097 44.4007C298.097 44.4007 285.134 45.8562 282.62 46.7825Z" fill="#FFBE55"/>
    <path d="M323.363 134.511L335.863 100.372L376.143 101.034L364.238 132.526L323.363 134.511Z" fill="#FFBE55"/>
    <path d="M348.761 115.457C347.505 117.905 347.901 120.617 349.621 121.411C351.341 122.271 353.656 120.948 354.912 118.5C356.169 116.052 355.772 113.34 354.052 112.546C352.333 111.686 349.952 113.009 348.761 115.457Z" fill="#F2F0F0"/>
    <path d="M324.289 50.9506C321.313 46.4517 319.196 42.879 318.931 36.4615C318.733 32.2272 317.807 26.4713 314.897 23.6264C317.939 15.6871 314.368 13.3053 312.913 10.7251C311.127 7.48322 297.899 -0.323709 292.674 7.88018C287.448 16.0179 289.3 24.5526 289.3 24.5526C289.829 20.0537 294.459 13.9669 294.459 13.9669C295.187 18.6643 304.91 26.3389 309.143 29.4485C309.076 29.5146 309.01 29.6469 309.01 29.7131C306.629 33.1535 309.606 36.5938 310.135 40.2326C310.664 43.8714 300.147 53.6632 311.854 58.559C323.561 63.5211 327.265 55.3834 324.289 50.9506Z" fill="#0E538C"/>
    <path d="M111.382 436.335C111.382 436.335 111.117 439.114 98.1535 439.114C85.1899 439.114 66.3397 435.739 66.3397 435.739L96.4338 432.828C96.4338 432.828 108.008 432.233 111.382 436.335Z" fill="#0E538C"/>
    <path d="M78.3775 437.327C71.0358 437.327 67.9272 441.098 65.017 442.289C62.1068 443.48 59.1966 445.266 59.1966 445.2C60.8501 441.958 63.1651 441.892 64.3556 440.834C65.5461 439.775 65.2154 440.304 62.6359 440.106C61.1808 439.974 58.5352 442.686 56.6832 444.208C55.0297 445.465 54.0376 445.597 54.0376 445.597C54.0376 445.597 55.9557 442.885 58.3368 440.701C61.247 438.055 64.8847 435.872 65.7446 435.475C67.3319 434.813 72.2264 434.681 75.6657 435.144C79.6341 435.673 83.6688 437.327 78.3775 437.327Z" fill="#0E538C"/>
    <path d="M66.2077 435.607C66.2077 435.607 60.5857 437.063 59.5936 437.857C58.9322 438.386 56.022 441.495 56.022 441.495C56.022 441.495 58.1385 441.165 59.329 439.974C60.5857 438.717 66.2077 435.607 66.2077 435.607Z" fill="#0E538C"/>
    <path d="M100.733 430.645C100.733 430.645 114.887 431.571 113.895 440.305C113.366 445.267 110.125 446.987 105.826 446.59C97.8889 445.928 88.8937 444.737 88.8937 444.737L84.8591 431.174L100.733 430.645Z" fill="#0E538C"/>
    <path d="M103.709 431.836L117.599 387.045C117.599 387.045 119.649 380.496 123.023 381.686C127.851 383.473 125.47 388.832 125.073 392.007C124.213 398.491 124.808 401.336 120.311 416.95C117.533 426.609 115.152 437.724 112.771 444.076C111.117 448.442 108.273 442.157 103.974 440.437C95.9048 437.195 103.709 431.836 103.709 431.836Z" fill="#0E538C"/>
    <path d="M104.767 362.698C107.479 370.505 115.879 374.541 123.617 371.696C131.29 368.851 135.39 360.184 132.679 352.377C129.967 344.57 121.567 340.535 113.828 343.379C106.156 346.224 102.055 354.891 104.767 362.698Z" fill="#0E538C"/>
    <path d="M89.5548 363.426C93.7878 369.778 102.254 371.365 108.405 366.999L107.545 359.523C113.696 355.09 115.217 346.357 110.984 340.005L108.074 335.705C103.841 329.354 95.3752 327.766 89.2241 332.132L86.4462 334.117C80.2951 338.55 78.7738 347.283 83.0069 353.634L89.5548 363.426Z" fill="#0E538C"/>
    <path d="M83.999 342.586C84.7266 343.644 85.5203 344.637 86.4462 345.629C92.5312 352.245 100.667 354.759 105.826 352.047C108.207 355.288 110.918 357.869 113.366 359.853C116.21 362.169 123.485 363.095 123.485 363.095C127.718 367.727 111.844 394.786 110.72 394.654C108.405 394.455 105.429 379.503 107.611 374.078C108.603 371.63 110.191 368.719 109.728 367.396C108.074 362.831 105.759 363.625 105.759 363.625C105.759 363.625 102.717 367.197 100.336 367.065C97.8886 366.866 93.6556 363.029 93.4572 362.963C92.7296 362.368 92.0682 361.64 91.4729 360.78L85.1234 351.253C83.4699 348.606 83.0731 345.43 83.999 342.586Z" fill="#FFE3CA"/>
    <path d="M132.546 456.58C132.546 456.58 127.387 462.799 125.8 463.461C123.683 464.387 117.202 462.402 117.202 462.402C117.202 462.402 115.482 433.887 113.498 422.772C111.513 411.657 108.603 408.746 108.471 405.239C108.273 399.616 103.577 397.366 104.37 393C105.164 388.633 106.553 373.019 107.016 375.07C111.051 392.801 116.011 378.048 117.135 375.732C117.731 374.475 132.546 456.58 132.546 456.58Z" fill="#F2F0F0"/>
    <path d="M109.066 369.777C109.066 369.777 102.783 376.658 103.246 379.371C103.643 382.083 100.534 390.552 103.643 402.328C107.148 415.759 109 424.889 109.662 433.688C110.323 442.488 107.347 450.559 108.537 461.343C109.463 469.812 111.381 470.275 111.381 470.275C111.381 470.275 115.151 471.201 117.797 467.893C120.443 464.651 116.474 435.806 115.151 428.66C113.829 421.449 109.596 404.644 108.471 399.682C107.082 393.595 107.347 387.376 107.413 385.59C107.744 379.305 108.537 375.401 109.199 373.019C109.265 372.689 109.596 368.984 109.066 369.777Z" fill="#0E538C"/>
    <path d="M120.046 377.849C123.485 387.773 134.2 392.867 143.989 389.229C153.777 385.59 158.936 374.607 155.497 364.683C152.058 354.759 141.343 349.665 131.554 353.304C121.765 356.876 116.606 367.925 120.046 377.849Z" fill="#0E538C"/>
    <path d="M86.3803 548.411L89.8858 576.396L74.6733 583.608L66.2734 585.46L81.2213 573.882L76.3269 548.609L86.3803 548.411Z" fill="#FCBAA2"/>
    <path d="M90.8776 580.631L87.5706 581.491L85.3218 579.44L73.1518 585.526L62.3709 588.107C62.3709 588.107 62.2386 587.247 62.5693 586.783C63.8921 584.997 71.4983 581.094 71.4983 581.094C71.4983 581.094 71.6306 583.674 72.6888 583.74C73.7471 583.806 83.073 578.91 85.2556 577.587C88.9595 575.272 89.6871 573.75 89.9516 573.948C90.7453 574.345 90.8776 580.631 90.8776 580.631Z" fill="#0E538C"/>
    <path d="M49.6722 509.508L37.5684 533.326L20.9009 532.532L12.5671 530.084L31.0205 526.975L41.0739 506.597L49.6722 509.508Z" fill="#FCBAA2"/>
    <path d="M36.5759 537.56L33.2688 536.766L32.2106 533.855L17.1966 533.657L8.26758 531.54C8.26758 531.54 9.32584 530.349 9.98725 530.018C11.9715 529.158 19.0485 528.761 19.0485 528.761C19.0485 528.761 18.321 530.812 19.247 531.341C20.1729 531.937 30.4909 532.267 33.0043 532.069C37.3696 531.738 38.6263 530.812 38.7585 531.076C39.2215 532.003 36.5759 537.56 36.5759 537.56Z" fill="#0E538C"/>
    <path d="M137.97 438.254L128.975 442.289L129.041 454.661L67.0671 444.539C67.0671 444.539 61.1806 442.62 57.4105 452.346C52.0531 466.107 38.4281 508.913 38.4281 508.913L47.0264 518.241L74.0781 469.878C74.0781 469.878 129.504 496.805 147.759 490.983C154.77 488.734 160.127 475.899 159.135 462.931C158.342 452.743 156.357 443.414 156.357 443.414L137.97 438.254Z" fill="#FFB750"/>
    <path d="M130.099 490.719L85.7187 487.411L89.5548 558.335L76.4589 558.798L66.8024 475.7C66.8024 475.7 69.3819 463.328 77.8479 465.181C86.3801 467.099 106.884 483.375 130.099 490.719Z" fill="#FFB750"/>
    <path d="M159.995 508.516C159.995 508.516 136.713 482.382 130.694 467.629C123.485 449.964 124.08 427.8 122.757 420.456C120.31 406.96 117.334 380.76 116.805 377.518C116.21 374.276 118.26 370.638 118.26 370.638C118.26 370.638 116.739 360.846 121.104 361.904C127.387 363.426 133.605 366.866 135.787 367.925C139.888 369.777 148.288 419.133 148.751 421.515C150.471 430.116 156.754 437.923 161.251 445.928C171.834 464.916 174.546 487.345 174.546 487.345C174.546 487.345 173.223 503.752 159.995 508.516Z" fill="#2A94F4"/>
    <path d="M135.986 440.172C135.986 440.172 135.787 443.348 120.972 442.62C106.156 441.826 84.4618 436.864 84.4618 436.864L118.789 435.276C118.789 435.276 131.951 435.342 135.986 440.172Z" fill="#FFE3CA"/>
    <path d="M96.1026 438.584C89.0255 438.452 85.983 442.091 83.2051 443.216C80.4272 444.34 77.5831 445.994 77.5831 445.994C79.1705 442.885 81.4193 442.819 82.6098 441.826C83.7342 440.834 83.4697 441.363 80.9563 441.098C79.5012 440.966 76.9879 443.546 75.202 445.002C73.6147 446.259 72.6226 446.325 72.6226 446.325C72.6226 446.325 74.4745 443.679 76.7894 441.562C79.6335 439.047 83.0728 436.93 83.9327 436.599C85.4539 436.004 90.1499 435.938 93.5231 436.467C97.2931 436.996 101.195 438.717 96.1026 438.584Z" fill="#FFE3CA"/>
    <path d="M84.2635 436.666C84.2635 436.666 78.8399 437.989 77.9139 438.717C77.2525 439.246 74.4746 442.223 74.4746 442.223C74.4746 442.223 76.4588 441.892 77.6494 440.768C78.8399 439.709 84.2635 436.666 84.2635 436.666Z" fill="#FFE3CA"/>
    <path d="M124.146 436.666L146.105 425.088C146.105 425.088 146.171 439.114 146.304 444.473C146.436 449.832 148.685 457.374 144.452 458.499C140.219 459.623 138.036 459.028 142.401 461.608C146.767 464.122 145.774 466.769 144.121 468.952C142.467 471.135 149.677 493.365 147.957 494.622C141.145 486.021 133.803 475.37 130.628 467.629C126.594 457.572 125.006 446.06 124.146 436.666Z" fill="#0E538C"/>
    <path d="M131.223 431.042L130.364 386.318C130.364 386.318 130.43 372.358 130.694 368.256C130.959 364.022 138.168 368.984 138.168 368.984C138.168 368.984 148.288 382.679 148.486 415.693C148.618 437.79 147.428 449.302 137.242 448.376C127.784 447.516 117.003 446.06 117.003 446.06L112.307 433.821L131.223 431.042Z" fill="#2A94F4"/>
    <path d="M128.975 454.661L53.3756 445.2L53.574 443.612L129.173 453.073L128.975 454.661Z" fill="#D3D3D3"/>
    <path d="M95.838 448.839C95.7057 450.096 94.7135 451.022 93.6553 450.89L54.8967 446.06C53.8385 445.928 52.5157 444.936 51.5897 441.628L36.6418 402.924C36.8403 401.336 38.0969 400.542 39.1552 400.939L78.7736 407.158C79.8318 407.555 80.5594 408.481 80.9562 410.201L95.838 448.839Z" fill="#D3D3D3"/>
    <path d="M90.9436 449.898L91.3405 449.964L129.173 454.727C127.718 455.323 125.403 455.521 122.824 455.19L91.1421 451.221L90.7452 451.155L59.0637 447.185C56.4842 446.854 54.3016 446.06 52.9788 445.2L90.9436 449.898Z" fill="#D3D3D3"/>
    <path d="M131.224 431.042L130.364 386.318C130.364 386.318 131.025 382.546 132.348 379.172C132.679 384.068 134.927 419.332 135.192 423.963C135.523 428.991 139.623 429.52 140.483 431.174C141.409 432.762 140.616 433.093 137.573 432.498C134.597 431.836 135.655 432.365 136.316 433.953C136.978 435.607 135.324 435.144 129.504 433.027C125.271 431.505 117.136 433.027 113.035 433.953L131.224 431.042Z" fill="#0E538C"/>
    <defs>
    <linearGradient id="paint0_linear" x1="288.068" y1="21.8186" x2="288.068" y2="565.936" gradientUnits="userSpaceOnUse">
    <stop stop-color="#FEAD62"/>
    <stop offset="1" stop-color="#FFD54A"/>
    </linearGradient>
    </defs>
    </svg>
