<svg viewBox="0 0 59 58" fill="none" xmlns="http://www.w3.org/2000/svg">
    <g clip-path="url(#clip0)">
    <path fill-rule="evenodd" clip-rule="evenodd" d="M53.3573 -0.000976562H6.23238C3.24175 -0.000976562 0.793701 2.44699 0.793701 5.4377V52.5626C0.793701 55.5532 3.24175 58.0012 6.23238 58.0012H53.3573C56.3479 58.0012 58.796 55.5532 58.796 52.5626V5.43761C58.796 2.44699 56.3479 -0.000976562 53.3573 -0.000976562ZM33.766 15.7498H40.3949V7.80002H33.766C28.6613 7.80002 24.4964 11.9638 24.4964 17.0749V21.0482H19.1958V29.0001H24.4953V50.2002H32.4462V29.0001H39.0686L40.3948 21.0482H32.4461V17.0749C32.4461 16.3556 33.0531 15.7487 33.766 15.7487V15.7497V15.7498Z" fill="url(#paint0_linear)"/>
    </g>
    <defs>
    <linearGradient id="paint0_linear" x1="29.7948" y1="-0.000976563" x2="29.7948" y2="58.0012" gradientUnits="userSpaceOnUse">
    <stop offset="0.604167" stop-color="#FFBE55"/>
    <stop offset="1" stop-color="#FFE143"/>
    </linearGradient>
    <clipPath id="clip0">
    <rect width="58" height="58" fill="white" transform="translate(0.795044 0.000244141)"/>
    </clipPath>
    </defs>
    </svg>
