<svg viewBox="0 0 551 310" fill="none" xmlns="http://www.w3.org/2000/svg">
    <path d="M74.959 281.009H501.206C501.206 281.009 523.281 205.031 454.862 183.003C395.899 164.024 370.404 226.429 307.754 212.06C245.103 197.691 129.491 128.136 73.1022 178.419C35.3759 212.06 39.1067 268.583 74.959 281.009Z" fill="url(#paint0_linear)"/>
    <path d="M444.895 77.8071H353.854C349.245 77.8071 345.509 81.5442 345.509 86.1542V219.314C345.509 223.923 349.245 227.661 353.854 227.661H444.895C449.504 227.661 453.241 223.923 453.241 219.314V86.1542C453.241 81.5442 449.504 77.8071 444.895 77.8071Z" fill="#F7F7F7"/>
    <path d="M408.641 109.576H355.716V112.335H408.641V109.576Z" fill="#D3D3D3"/>
    <path d="M408.641 116.919H355.716V119.677H408.641V116.919Z" fill="#D3D3D3"/>
    <path d="M408.641 124.264H355.716V127.023H408.641V124.264Z" fill="#D3D3D3"/>
    <path d="M408.641 131.607H355.716V134.365H408.641V131.607Z" fill="#D3D3D3"/>
    <path d="M408.641 138.949H355.716V141.707H408.641V138.949Z" fill="#D3D3D3"/>
    <path d="M408.641 146.291H355.716V149.05H408.641V146.291Z" fill="#D3D3D3"/>
    <path d="M444.723 153.634H355.716V156.392H444.723V153.634Z" fill="#D3D3D3"/>
    <path d="M444.723 160.976H355.716V163.735H444.723V160.976Z" fill="#D3D3D3"/>
    <path d="M444.723 168.319H355.716V171.077H444.723V168.319Z" fill="#D3D3D3"/>
    <path d="M444.723 175.661H355.716V178.419H444.723V175.661Z" fill="#D3D3D3"/>
    <path d="M444.723 183.003H355.716V185.762H444.723V183.003Z" fill="#D3D3D3"/>
    <path d="M444.723 190.346H355.716V193.104H444.723V190.346Z" fill="#D3D3D3"/>
    <path d="M444.723 197.688H355.716V200.447H444.723V197.688Z" fill="#D3D3D3"/>
    <path d="M444.723 205.031H355.716V207.789H444.723V205.031Z" fill="#D3D3D3"/>
    <path d="M444.723 212.373H355.716V215.131H444.723V212.373Z" fill="#D3D3D3"/>
    <path d="M444.723 109.576H412.665V149.047H444.723V109.576Z" fill="#D3D3D3"/>
    <path d="M318.24 52.9325H227.199C222.589 52.9325 218.853 56.6696 218.853 61.2795V194.439C218.853 199.049 222.589 202.786 227.199 202.786H318.24C322.849 202.786 326.585 199.049 326.585 194.439V61.2795C326.585 56.6696 322.849 52.9325 318.24 52.9325Z" fill="#F7F7F7"/>
    <path d="M281.986 84.7018H229.061V87.4602H281.986V84.7018Z" fill="#D3D3D3"/>
    <path d="M281.986 92.0442H229.061V94.8026H281.986V92.0442Z" fill="#D3D3D3"/>
    <path d="M281.986 99.3866H229.061V102.145H281.986V99.3866Z" fill="#D3D3D3"/>
    <path d="M281.986 106.729H229.061V109.487H281.986V106.729Z" fill="#D3D3D3"/>
    <path d="M281.986 114.074H229.061V116.833H281.986V114.074Z" fill="#D3D3D3"/>
    <path d="M281.986 121.417H229.061V124.175H281.986V121.417Z" fill="#D3D3D3"/>
    <path d="M318.068 128.759H229.061V131.518H318.068V128.759Z" fill="#D3D3D3"/>
    <path d="M318.068 136.101H229.061V138.86H318.068V136.101Z" fill="#D3D3D3"/>
    <path d="M318.068 143.444H229.061V146.202H318.068V143.444Z" fill="#D3D3D3"/>
    <path d="M318.068 150.786H229.061V153.545H318.068V150.786Z" fill="#D3D3D3"/>
    <path d="M318.068 158.129H229.061V160.887H318.068V158.129Z" fill="#D3D3D3"/>
    <path d="M318.068 165.471H229.061V168.23H318.068V165.471Z" fill="#D3D3D3"/>
    <path d="M318.068 172.813H229.061V175.572H318.068V172.813Z" fill="#D3D3D3"/>
    <path d="M318.068 180.156H229.061V182.914H318.068V180.156Z" fill="#D3D3D3"/>
    <path d="M318.068 187.498H229.061V190.257H318.068V187.498Z" fill="#D3D3D3"/>
    <path d="M318.068 84.7018H286.009V124.172H318.068V84.7018Z" fill="#D3D3D3"/>
    <path d="M197.146 84.8367H106.105C101.496 84.8367 97.7595 88.5738 97.7595 93.1837V226.343C97.7595 230.953 101.496 234.69 106.105 234.69H197.146C201.755 234.69 205.492 230.953 205.492 226.343V93.1837C205.492 88.5738 201.755 84.8367 197.146 84.8367Z" fill="#F7F7F7"/>
    <path d="M160.892 116.606H107.967V119.364H160.892V116.606Z" fill="#D3D3D3"/>
    <path d="M160.892 123.948H107.967V126.707H160.892V123.948Z" fill="#D3D3D3"/>
    <path d="M160.892 131.291H107.967V134.049H160.892V131.291Z" fill="#D3D3D3"/>
    <path d="M160.892 138.633H107.967V141.392H160.892V138.633Z" fill="#D3D3D3"/>
    <path d="M160.892 145.976H107.967V148.734H160.892V145.976Z" fill="#D3D3D3"/>
    <path d="M160.892 153.318H107.967V156.076H160.892V153.318Z" fill="#D3D3D3"/>
    <path d="M196.974 160.663H107.967V163.422H196.974V160.663Z" fill="#D3D3D3"/>
    <path d="M196.974 168.006H107.967V170.764H196.974V168.006Z" fill="#D3D3D3"/>
    <path d="M196.974 175.348H107.967V178.106H196.974V175.348Z" fill="#D3D3D3"/>
    <path d="M196.974 182.69H107.967V185.449H196.974V182.69Z" fill="#D3D3D3"/>
    <path d="M196.974 190.033H107.967V192.791H196.974V190.033Z" fill="#D3D3D3"/>
    <path d="M196.974 197.375H107.967V200.134H196.974V197.375Z" fill="#D3D3D3"/>
    <path d="M196.974 204.718H107.967V207.476H196.974V204.718Z" fill="#D3D3D3"/>
    <path d="M196.974 212.06H107.967V214.818H196.974V212.06Z" fill="#D3D3D3"/>
    <path d="M196.974 219.402H107.967V222.161H196.974V219.402Z" fill="#D3D3D3"/>
    <path d="M196.974 116.606H164.916V156.076H196.974V116.606Z" fill="#D3D3D3"/>
    <path d="M212.296 257.937C212.296 257.937 206.889 258.618 206.246 260.455C205.603 262.292 204.685 269.729 205.787 270.647C206.889 271.566 210.835 275.056 211.845 274.597C212.855 274.138 209.836 270.188 210.468 268.259C211.099 266.33 212.121 261.924 213.513 260.63C214.904 259.335 212.296 257.937 212.296 257.937Z" fill="#0B4870"/>
    <path d="M211.452 257.776L207.635 259.197L211.222 265.756L212.522 261.996L211.452 257.776Z" fill="#F7F7F7"/>
    <path d="M319.764 270.334V279.287C319.764 279.287 342.435 280.211 342.627 279.287C342.82 278.363 326.585 273.386 326.585 273.386L325.018 267.392L319.764 270.334Z" fill="#0B4870"/>
    <path d="M319.709 270.865V274.06L326.585 273.377L325.564 268.853L319.709 270.865Z" fill="#F7F7F7"/>
    <path d="M343.881 139.787C343.881 139.787 347.098 135.829 347.23 133.337C347.362 130.846 346.846 129.302 346.846 129.302C346.846 129.302 343.549 135.602 343.276 135.401C343.003 135.2 344.12 132.789 344.12 132.789C344.12 132.789 343.497 131.54 340.693 139.227C337.889 146.914 343.881 139.787 343.881 139.787Z" fill="#F2C398"/>
    <path d="M292.854 182.447H267.41C267.41 182.447 257.268 226.3 248.217 231.203C239.166 236.105 208.614 257.98 208.614 257.98L212.761 265.527C212.761 265.527 260.901 242.518 268.133 229.317C275.365 216.116 284.896 197.634 284.896 197.634C284.896 197.634 318.733 221.395 318.733 227.431V271.184H327.03C327.03 271.184 333.057 226.3 328.915 218.757C324.774 211.213 292.854 182.447 292.854 182.447Z" fill="#0B4870"/>
    <path d="M299.072 123.882L301.819 126.07L299.945 129.307L297.617 125.567L299.072 123.882Z" fill="#C9C9C9"/>
    <path d="M295.112 128.07L301.139 128.463L307.246 132.691L305.131 135.665V141.303C305.131 141.303 305.288 157.899 301.179 166.12C297.069 174.341 296.521 183.42 293.781 185.219C291.04 187.019 267.611 186.898 267.611 186.898L291.617 130.654L295.112 128.07Z" fill="#C9C9C9"/>
    <path d="M307.03 102.119C307.03 102.119 313.103 118.572 308.21 120.283C305.344 121.31 302.211 121.31 299.345 120.283L298.656 129.304L293.941 128.42L291.169 127.301L293.115 117.51C293.115 117.51 292.231 104.306 295.411 102.119C298.59 99.9319 307.03 102.119 307.03 102.119Z" fill="#F2C398"/>
    <path d="M295.414 104.714C295.414 104.714 298.834 103.948 301.193 104.183C303.552 104.418 306.735 105.42 308.681 102.297C310.626 99.1742 311.332 96.3383 307.441 96.8693C303.549 97.4003 292.113 96.2809 290.816 102.708C289.519 109.134 295.414 104.714 295.414 104.714Z" fill="#0B4870"/>
    <path d="M291.215 101.502C291.215 101.502 290.087 103.534 290.641 109.077C291.195 114.62 292.966 118.317 292.966 118.317H293.715C293.715 118.317 294.954 116.213 294.954 114.505C294.954 112.797 293.775 110.739 295.425 109.912C297.075 109.086 297.784 111.204 297.784 111.204L299.021 110.851C299.021 110.851 295.431 107.406 300.086 104.143C304.74 100.879 302.668 99.0565 302.668 99.0565L291.215 101.502Z" fill="#0B4870"/>
    <path d="M292.036 122.944L297.617 127.757L294.487 130.656L290.807 124.313L292.036 122.944Z" fill="#C9C9C9"/>
    <path d="M305.389 144.38C305.389 144.38 305.94 141.9 304.815 152.991C303.69 164.082 294.466 185.004 294.466 185.004H293.08C293.08 185.004 302.378 161.048 304.382 147.468C306.385 133.888 300.777 127.855 300.777 127.855L301.813 126.064L299.067 123.877C299.067 123.877 307.963 125.561 311.309 134.227C313.086 138.837 323.649 152.141 323.649 152.141L340.555 133.168L346.565 138.823C346.565 138.823 328.864 163.706 323.176 163.376C317.488 163.046 305.389 144.38 305.389 144.38Z" fill="#0B4870"/>
    <path d="M296.59 128.908L298.751 128.073L300.783 127.858L299.348 131.423L296.59 128.908Z" fill="#FFBE55"/>
    <path d="M299.345 131.423C299.345 131.423 303.699 138.53 303.122 142.741C302.545 146.951 287.421 185.01 287.421 185.01C287.421 185.01 299.506 146.171 298.685 142.273C297.864 138.375 299.345 131.423 299.345 131.423Z" fill="#FFEB3C"/>
    <path d="M292.036 122.944C292.036 122.944 276.849 122.634 274.639 126.583C272.429 130.533 271.459 139.804 271.459 139.804C271.459 139.804 267.889 179.946 264.572 187.24C261.254 194.534 284.373 172.179 287.398 165.043C290.423 157.908 295.798 127.631 295.798 127.631L292.047 122.932" fill="#0B4870"/>
    <g style="mix-blend-mode:multiply" opacity="0.39">
    <path d="M354.388 129.81C368.849 129.81 380.572 118.084 380.572 103.62C380.572 89.1565 368.849 77.4312 354.388 77.4312C339.927 77.4312 328.204 89.1565 328.204 103.62C328.204 118.084 339.927 129.81 354.388 129.81Z" fill="#CCE9FF"/>
    </g>
    <path d="M354.388 72.6548C347.678 72.6558 341.147 74.8122 335.755 78.8062C330.363 82.8003 326.397 88.4207 324.439 94.8396C322.482 101.259 322.638 108.136 324.884 114.46C327.13 120.784 331.347 126.219 336.914 129.965L318.389 168.778C318.072 169.326 317.872 169.934 317.801 170.564C317.731 171.194 317.791 171.831 317.979 172.436C318.166 173.042 318.477 173.601 318.892 174.08C319.306 174.56 319.815 174.948 320.387 175.221C320.958 175.494 321.58 175.645 322.213 175.666C322.847 175.687 323.477 175.577 324.065 175.342C324.654 175.107 325.187 174.753 325.632 174.302C326.077 173.851 326.424 173.313 326.651 172.722L345.167 133.926C349.474 135.253 354.017 135.635 358.486 135.046C362.954 134.457 367.243 132.909 371.058 130.51C374.874 128.111 378.127 124.916 380.595 121.144C383.063 117.372 384.688 113.112 385.359 108.654C386.03 104.196 385.732 99.646 384.483 95.3143C383.235 90.9827 381.066 86.9716 378.126 83.555C375.186 80.1385 371.543 77.3969 367.446 75.5177C363.349 73.6385 358.895 72.6659 354.388 72.6663V72.6548ZM354.388 129.732C349.294 129.732 344.315 128.221 340.08 125.391C335.845 122.561 332.544 118.538 330.595 113.831C328.645 109.124 328.135 103.945 329.129 98.9481C330.123 93.9514 332.576 89.3617 336.177 85.7592C339.779 82.1568 344.368 79.7035 349.363 78.7096C354.359 77.7157 359.537 78.2258 364.243 80.1755C368.949 82.1251 372.971 85.4266 375.801 89.6626C378.631 93.8986 380.141 98.8788 380.141 103.973C380.142 107.357 379.477 110.707 378.183 113.833C376.89 116.96 374.993 119.8 372.601 122.193C370.21 124.586 367.37 126.484 364.245 127.779C361.12 129.074 357.77 129.741 354.388 129.741V129.732Z" fill="#FFBE55"/>
    <path d="M329.38 149.417C329.38 149.417 334.417 150.232 336.641 149.107C338.865 147.982 339.947 146.759 339.947 146.759C339.947 146.759 332.841 147.046 332.881 146.705C332.922 146.363 335.565 146.131 335.565 146.131C335.565 146.131 336.337 144.982 328.278 146.372C320.22 147.761 329.38 149.417 329.38 149.417Z" fill="#F2C398"/>
    <path d="M287.421 129.64C287.421 129.64 301.529 154.282 303.173 153.639C304.818 152.996 329.079 144.093 329.079 144.093L332.181 150.02C332.181 150.02 307.366 164.906 299.345 163.247C291.324 161.588 280.011 136.216 280.011 136.216L287.421 129.64Z" fill="#0B4870"/>
    <path d="M506.842 280H56.1576C53.8614 280 52 281.791 52 284C52 286.209 53.8614 288 56.1576 288H506.842C509.139 288 511 286.209 511 284C511 281.791 509.139 280 506.842 280Z" fill="black"/>
    <defs>
    <linearGradient id="paint0_linear" x1="275.5" y1="160.425" x2="275.5" y2="281.009" gradientUnits="userSpaceOnUse">
    <stop offset="0.494792" stop-color="#FEAD62"/>
    <stop offset="1" stop-color="#FFEC3C"/>
    </linearGradient>
    </defs>
    </svg>
