<svg viewBox="0 0 459 230" fill="none" xmlns="http://www.w3.org/2000/svg">
    <path d="M28.959 229.009H455.206C455.206 229.009 477.281 153.031 408.862 131.003C349.899 112.024 324.404 174.429 261.754 160.06C199.103 145.691 83.4908 76.1362 27.1022 126.419C-10.6241 160.06 -6.89331 216.583 28.959 229.009Z" fill="url(#paint0_linear)"/>
    <path d="M398.895 25.8071H307.854C303.245 25.8071 299.509 29.5442 299.509 34.1542V167.314C299.509 171.923 303.245 175.661 307.854 175.661H398.895C403.504 175.661 407.241 171.923 407.241 167.314V34.1542C407.241 29.5442 403.504 25.8071 398.895 25.8071Z" fill="#F7F7F7"/>
    <path d="M362.641 57.5764H309.716V60.3348H362.641V57.5764Z" fill="#D3D3D3"/>
    <path d="M362.641 64.9188H309.716V67.6772H362.641V64.9188Z" fill="#D3D3D3"/>
    <path d="M362.641 72.2641H309.716V75.0225H362.641V72.2641Z" fill="#D3D3D3"/>
    <path d="M362.641 79.6065H309.716V82.3649H362.641V79.6065Z" fill="#D3D3D3"/>
    <path d="M362.641 86.9489H309.716V89.7073H362.641V86.9489Z" fill="#D3D3D3"/>
    <path d="M362.641 94.2913H309.716V97.0497H362.641V94.2913Z" fill="#D3D3D3"/>
    <path d="M398.723 101.634H309.716V104.392H398.723V101.634Z" fill="#D3D3D3"/>
    <path d="M398.723 108.976H309.716V111.735H398.723V108.976Z" fill="#D3D3D3"/>
    <path d="M398.723 116.319H309.716V119.077H398.723V116.319Z" fill="#D3D3D3"/>
    <path d="M398.723 123.661H309.716V126.419H398.723V123.661Z" fill="#D3D3D3"/>
    <path d="M398.723 131.003H309.716V133.762H398.723V131.003Z" fill="#D3D3D3"/>
    <path d="M398.723 138.346H309.716V141.104H398.723V138.346Z" fill="#D3D3D3"/>
    <path d="M398.723 145.688H309.716V148.447H398.723V145.688Z" fill="#D3D3D3"/>
    <path d="M398.723 153.031H309.716V155.789H398.723V153.031Z" fill="#D3D3D3"/>
    <path d="M398.723 160.373H309.716V163.131H398.723V160.373Z" fill="#D3D3D3"/>
    <path d="M398.723 57.5764H366.665V97.0469H398.723V57.5764Z" fill="#D3D3D3"/>
    <path d="M272.24 0.932495H181.199C176.589 0.932495 172.853 4.66959 172.853 9.27953V142.439C172.853 147.049 176.589 150.786 181.199 150.786H272.24C276.849 150.786 280.585 147.049 280.585 142.439V9.27953C280.585 4.66959 276.849 0.932495 272.24 0.932495Z" fill="#F7F7F7"/>
    <path d="M235.986 32.7018H183.061V35.4602H235.986V32.7018Z" fill="#D3D3D3"/>
    <path d="M235.986 40.0442H183.061V42.8026H235.986V40.0442Z" fill="#D3D3D3"/>
    <path d="M235.986 47.3866H183.061V50.145H235.986V47.3866Z" fill="#D3D3D3"/>
    <path d="M235.986 54.7289H183.061V57.4874H235.986V54.7289Z" fill="#D3D3D3"/>
    <path d="M235.986 62.0743H183.061V64.8327H235.986V62.0743Z" fill="#D3D3D3"/>
    <path d="M235.986 69.4167H183.061V72.1751H235.986V69.4167Z" fill="#D3D3D3"/>
    <path d="M272.068 76.7591H183.061V79.5175H272.068V76.7591Z" fill="#D3D3D3"/>
    <path d="M272.068 84.1014H183.061V86.8599H272.068V84.1014Z" fill="#D3D3D3"/>
    <path d="M272.068 91.4438H183.061V94.2023H272.068V91.4438Z" fill="#D3D3D3"/>
    <path d="M272.068 98.7863H183.061V101.545H272.068V98.7863Z" fill="#D3D3D3"/>
    <path d="M272.068 106.129H183.061V108.887H272.068V106.129Z" fill="#D3D3D3"/>
    <path d="M272.068 113.471H183.061V116.23H272.068V113.471Z" fill="#D3D3D3"/>
    <path d="M272.068 120.813H183.061V123.572H272.068V120.813Z" fill="#D3D3D3"/>
    <path d="M272.068 128.156H183.061V130.914H272.068V128.156Z" fill="#D3D3D3"/>
    <path d="M272.068 135.498H183.061V138.257H272.068V135.498Z" fill="#D3D3D3"/>
    <path d="M272.068 32.7018H240.009V72.1722H272.068V32.7018Z" fill="#D3D3D3"/>
    <path d="M151.146 32.8367H60.1049C55.4959 32.8367 51.7595 36.5738 51.7595 41.1837V174.343C51.7595 178.953 55.4959 182.69 60.1049 182.69H151.146C155.755 182.69 159.492 178.953 159.492 174.343V41.1837C159.492 36.5738 155.755 32.8367 151.146 32.8367Z" fill="#F7F7F7"/>
    <path d="M114.892 64.6059H61.9673V67.3643H114.892V64.6059Z" fill="#D3D3D3"/>
    <path d="M114.892 71.9483H61.9673V74.7068H114.892V71.9483Z" fill="#D3D3D3"/>
    <path d="M114.892 79.2908H61.9673V82.0492H114.892V79.2908Z" fill="#D3D3D3"/>
    <path d="M114.892 86.6332H61.9673V89.3916H114.892V86.6332Z" fill="#D3D3D3"/>
    <path d="M114.892 93.9755H61.9673V96.7339H114.892V93.9755Z" fill="#D3D3D3"/>
    <path d="M114.892 101.318H61.9673V104.076H114.892V101.318Z" fill="#D3D3D3"/>
    <path d="M150.974 108.663H61.9673V111.422H150.974V108.663Z" fill="#D3D3D3"/>
    <path d="M150.974 116.006H61.9673V118.764H150.974V116.006Z" fill="#D3D3D3"/>
    <path d="M150.974 123.348H61.9673V126.106H150.974V123.348Z" fill="#D3D3D3"/>
    <path d="M150.974 130.69H61.9673V133.449H150.974V130.69Z" fill="#D3D3D3"/>
    <path d="M150.974 138.033H61.9673V140.791H150.974V138.033Z" fill="#D3D3D3"/>
    <path d="M150.974 145.375H61.9673V148.134H150.974V145.375Z" fill="#D3D3D3"/>
    <path d="M150.974 152.718H61.9673V155.476H150.974V152.718Z" fill="#D3D3D3"/>
    <path d="M150.974 160.06H61.9673V162.818H150.974V160.06Z" fill="#D3D3D3"/>
    <path d="M150.974 167.402H61.9673V170.161H150.974V167.402Z" fill="#D3D3D3"/>
    <path d="M150.974 64.6059H118.916V104.076H150.974V64.6059Z" fill="#D3D3D3"/>
    <path d="M166.296 205.937C166.296 205.937 160.889 206.618 160.246 208.455C159.603 210.292 158.685 217.729 159.787 218.647C160.889 219.566 164.835 223.056 165.845 222.597C166.855 222.138 163.836 218.188 164.468 216.259C165.099 214.33 166.121 209.924 167.513 208.63C168.904 207.335 166.296 205.937 166.296 205.937Z" fill="#0B4870"/>
    <path d="M165.452 205.776L161.635 207.197L165.222 213.756L166.522 209.996L165.452 205.776Z" fill="#F7F7F7"/>
    <path d="M273.764 218.334V227.287C273.764 227.287 296.435 228.211 296.627 227.287C296.82 226.363 280.585 221.386 280.585 221.386L279.018 215.392L273.764 218.334Z" fill="#0B4870"/>
    <path d="M273.709 218.865V222.06L280.585 221.377L279.564 216.853L273.709 218.865Z" fill="#F7F7F7"/>
    <path d="M297.881 87.787C297.881 87.787 301.098 83.8288 301.23 81.3373C301.362 78.8458 300.846 77.3016 300.846 77.3016C300.846 77.3016 297.549 83.602 297.276 83.4011C297.003 83.2002 298.12 80.7891 298.12 80.7891C298.12 80.7891 297.497 79.5405 294.693 87.2273C291.889 94.9141 297.881 87.787 297.881 87.787Z" fill="#F2C398"/>
    <path d="M246.854 130.447H221.41C221.41 130.447 211.268 174.3 202.217 179.203C193.166 184.105 162.614 205.98 162.614 205.98L166.761 213.527C166.761 213.527 214.901 190.518 222.133 177.317C229.365 164.116 238.896 145.634 238.896 145.634C238.896 145.634 272.733 169.395 272.733 175.431V219.184H281.03C281.03 219.184 287.057 174.3 282.915 166.757C278.774 159.213 246.854 130.447 246.854 130.447Z" fill="#0B4870"/>
    <path d="M253.072 71.8823L255.819 74.0695L253.945 77.3073L251.617 73.5672L253.072 71.8823Z" fill="#C9C9C9"/>
    <path d="M249.112 76.0702L255.139 76.4634L261.246 80.6915L259.131 83.6652V89.3026C259.131 89.3026 259.288 105.899 255.179 114.12C251.069 122.341 250.521 131.42 247.781 133.219C245.04 135.019 221.611 134.898 221.611 134.898L245.617 78.6535L249.112 76.0702Z" fill="#C9C9C9"/>
    <path d="M261.03 50.1191C261.03 50.1191 267.103 66.5721 262.21 68.2828C259.344 69.3101 256.211 69.3101 253.345 68.2828L252.656 77.3044L247.941 76.4203L245.169 75.3009L247.115 65.5101C247.115 65.5101 246.231 52.3064 249.411 50.1191C252.59 47.9319 261.03 50.1191 261.03 50.1191Z" fill="#F2C398"/>
    <path d="M249.414 52.714C249.414 52.714 252.834 51.9476 255.193 52.183C257.552 52.4184 260.735 53.4201 262.681 50.2972C264.626 47.1742 265.332 44.3383 261.441 44.8693C257.549 45.4003 246.113 44.2809 244.816 50.7076C243.519 57.1344 249.414 52.714 249.414 52.714Z" fill="#0B4870"/>
    <path d="M245.215 49.502C245.215 49.502 244.087 51.5342 244.641 57.0769C245.195 62.6196 246.966 66.3167 246.966 66.3167H247.715C247.715 66.3167 248.954 64.2127 248.954 62.5048C248.954 60.7969 247.775 58.7389 249.425 57.9122C251.075 57.0855 251.784 59.2039 251.784 59.2039L253.021 58.8508C253.021 58.8508 249.431 55.4064 254.086 52.1428C258.74 48.8791 256.668 47.0565 256.668 47.0565L245.215 49.502Z" fill="#0B4870"/>
    <path d="M246.036 70.9437L251.617 75.7573L248.487 78.6564L244.807 72.3129L246.036 70.9437Z" fill="#C9C9C9"/>
    <path d="M259.389 92.3796C259.389 92.3796 259.94 89.8996 258.815 100.991C257.69 112.082 248.466 133.004 248.466 133.004H247.08C247.08 133.004 256.378 109.048 258.382 95.4682C260.385 81.8884 254.777 75.8549 254.777 75.8549L255.813 74.0638L253.067 71.8766C253.067 71.8766 261.963 73.5615 265.309 82.2271C267.086 86.837 277.649 100.141 277.649 100.141L294.555 81.168L300.565 86.8226C300.565 86.8226 282.864 111.706 277.176 111.376C271.488 111.046 259.389 92.3796 259.389 92.3796Z" fill="#0B4870"/>
    <path d="M250.59 76.9083L252.751 76.0731L254.783 75.8578L253.348 79.4228L250.59 76.9083Z" fill="#FFBE55"/>
    <path d="M253.345 79.4228C253.345 79.4228 257.699 86.5298 257.122 90.7407C256.545 94.9515 241.421 133.01 241.421 133.01C241.421 133.01 253.506 94.1707 252.685 90.2728C251.864 86.3748 253.345 79.4228 253.345 79.4228Z" fill="#FFEB3C"/>
    <path d="M246.036 70.9437C246.036 70.9437 230.849 70.6337 228.639 74.5834C226.429 78.533 225.459 87.8043 225.459 87.8043C225.459 87.8043 221.889 127.946 218.572 135.24C215.254 142.534 238.373 120.179 241.398 113.043C244.423 105.908 249.798 75.631 249.798 75.631L246.047 70.9323" fill="#0B4870"/>
    <g style="mix-blend-mode:multiply" opacity="0.39">
    <path d="M308.388 77.8097C322.849 77.8097 334.572 66.0843 334.572 51.6204C334.572 37.1565 322.849 25.4312 308.388 25.4312C293.927 25.4312 282.204 37.1565 282.204 51.6204C282.204 66.0843 293.927 77.8097 308.388 77.8097Z" fill="#CCE9FF"/>
    </g>
    <path d="M308.388 20.6548C301.678 20.6558 295.147 22.8122 289.755 26.8062C284.363 30.8003 280.397 36.4207 278.439 42.8396C276.482 49.2585 276.638 56.1365 278.884 62.4601C281.13 68.7838 285.347 74.2189 290.914 77.9646L272.389 116.778C272.072 117.326 271.872 117.934 271.801 118.564C271.731 119.194 271.791 119.831 271.979 120.436C272.166 121.042 272.477 121.601 272.892 122.08C273.306 122.56 273.815 122.948 274.387 123.221C274.958 123.494 275.58 123.645 276.213 123.666C276.847 123.687 277.477 123.577 278.065 123.342C278.654 123.107 279.187 122.753 279.632 122.302C280.077 121.851 280.424 121.313 280.651 120.722L299.167 81.9257C303.474 83.2534 308.017 83.6355 312.486 83.046C316.954 82.4565 321.243 80.9093 325.058 78.5101C328.874 76.1109 332.127 72.9161 334.595 69.1441C337.063 65.3721 338.688 61.1117 339.359 56.6539C340.03 52.1961 339.732 47.646 338.483 43.3143C337.235 38.9827 335.066 34.9716 332.126 31.555C329.186 28.1385 325.543 25.3969 321.446 23.5177C317.349 21.6385 312.895 20.6659 308.388 20.6663V20.6548ZM308.388 77.7321C303.294 77.7321 298.315 76.2214 294.08 73.391C289.845 70.5606 286.544 66.5376 284.595 61.8308C282.645 57.124 282.135 51.9448 283.129 46.9481C284.123 41.9514 286.576 37.3617 290.177 33.7592C293.779 30.1568 298.368 27.7035 303.363 26.7096C308.359 25.7157 313.537 26.2258 318.243 28.1755C322.949 30.1251 326.971 33.4266 329.801 37.6626C332.631 41.8986 334.141 46.8788 334.141 51.9734C334.142 55.3568 333.477 58.7073 332.183 61.8335C330.89 64.9597 328.993 67.8003 326.601 70.1931C324.21 72.586 321.37 74.4841 318.245 75.7791C315.12 77.0742 311.77 77.7407 308.388 77.7407V77.7321Z" fill="#FFBE55"/>
    <path d="M283.38 97.4171C283.38 97.4171 288.417 98.2323 290.641 97.1071C292.865 95.982 293.947 94.7592 293.947 94.7592C293.947 94.7592 286.841 95.0462 286.881 94.7047C286.922 94.3631 289.565 94.1306 289.565 94.1306C289.565 94.1306 290.337 92.9824 282.278 94.3717C274.22 95.7609 283.38 97.4171 283.38 97.4171Z" fill="#F2C398"/>
    <path d="M241.421 77.6403C241.421 77.6403 255.529 102.282 257.173 101.639C258.818 100.996 283.079 92.0926 283.079 92.0926L286.181 98.0199C286.181 98.0199 261.366 112.906 253.345 111.247C245.324 109.588 234.011 84.2163 234.011 84.2163L241.421 77.6403Z" fill="#0B4870"/>
    <defs>
    <linearGradient id="paint0_linear" x1="229.5" y1="108.425" x2="229.5" y2="229.009" gradientUnits="userSpaceOnUse">
    <stop offset="0.494792" stop-color="#FEAD62"/>
    <stop offset="1" stop-color="#FFEC3C"/>
    </linearGradient>
    </defs>
    </svg>
