<svg viewBox="0 0 54 60" fill="none" xmlns="http://www.w3.org/2000/svg">
    <path fill-rule="evenodd" clip-rule="evenodd" d="M48.9375 0.168701H5.06251C2.27813 0.168701 0 2.66239 0 5.71023V53.7368C0 56.7846 2.27813 59.2783 5.06251 59.2783H48.9375C51.7219 59.2783 54 56.7846 54 53.7368V5.71023C54 2.66239 51.7219 0.168701 48.9375 0.168701ZM18.9886 9.15964H35.0125C41.0298 9.15964 45.9499 14.4787 45.9499 20.9769V38.4701C45.9499 44.9694 41.0298 50.2874 35.0125 50.2874H18.9886C12.9723 50.2874 8.05124 44.9694 8.05124 38.4701V20.9769C8.05124 14.4786 12.9723 9.15964 18.9886 9.15964ZM26.8984 18.6196C32.7452 18.6196 37.4909 23.8132 37.4909 30.2143C37.4909 36.6156 32.7452 41.8081 26.8985 41.8081C21.0496 41.8081 16.3058 36.6156 16.3058 30.2143C16.3058 23.8132 21.0495 18.6196 26.8984 18.6196ZM26.8984 22.5358C30.7701 22.5358 33.9132 25.9742 33.9132 30.2144C33.9132 34.4535 30.7701 37.8929 26.8984 37.8929C23.0247 37.8929 19.8826 34.4535 19.8826 30.2144C19.8826 25.9742 23.0247 22.5357 26.8984 22.5357V22.5358ZM37.1461 17.0127C38.0958 17.0127 38.8652 17.8549 38.8652 18.8944C38.8652 19.934 38.0958 20.7773 37.1461 20.7773C36.1963 20.7773 35.426 19.934 35.426 18.8944C35.426 17.8549 36.1963 17.0127 37.1461 17.0127ZM20.2972 12.5195H33.704C38.7376 12.5195 42.8545 17.0029 42.8545 22.4822V37.2308C42.8545 42.7102 38.7376 47.1935 33.704 47.1935H20.2971C15.2645 47.1935 11.1466 42.7102 11.1466 37.2308V22.4823C11.1466 17.0028 15.2645 12.5195 20.2971 12.5195H20.2972Z" fill="url(#paint0_linear)"/>
    <defs>
    <linearGradient id="paint0_linear" x1="27" y1="0.168701" x2="27" y2="59.2783" gradientUnits="userSpaceOnUse">
    <stop offset="0.635417" stop-color="#FFBE55"/>
    <stop offset="1" stop-color="#FFD948"/>
    </linearGradient>
    </defs>
    </svg>
