<svg viewBox="0 0 1078 659" version="1.1" xmlns="http://www.w3.org/2000/svg" xmlnsXlink="http://www.w3.org/1999/xlink" xml:space="preserve" style="fill-rule:evenodd;clip-rule:evenodd;stroke-linejoin:round;stroke-miterlimit:2;"><g><path d="M3.617,39.87l95.045,0c23.192,0 43.796,4.485 61.811,13.454c18.015,8.97 31.992,21.651 41.932,38.043c9.939,16.393 14.909,35.311 14.909,56.756c-0,21.444 -4.97,40.362 -14.909,56.755c-9.94,16.392 -23.917,29.074 -41.932,38.043c-18.015,8.97 -38.619,13.454 -61.811,13.454l-95.045,0l-0,-216.505Zm93.182,182.483c15.944,0 29.973,-3.041 42.087,-9.124c12.113,-6.083 21.432,-14.743 27.954,-25.981c6.523,-11.237 9.784,-24.279 9.784,-39.125c0,-14.846 -3.261,-27.888 -9.784,-39.126c-6.522,-11.238 -15.841,-19.898 -27.954,-25.981c-12.114,-6.082 -26.143,-9.124 -42.087,-9.124l-52.803,0l-0,148.461l52.803,0Z" style="fill-rule:nonzero;"/><path d="M412.374,174.722c0,2.68 -0.207,6.495 -0.621,11.444l-130.144,-0c2.278,12.165 8.231,21.805 17.86,28.919c9.629,7.113 21.587,10.67 35.875,10.67c18.222,0 33.235,-5.979 45.038,-17.939l20.811,23.816c-7.455,8.866 -16.877,15.568 -28.266,20.104c-11.388,4.536 -24.227,6.804 -38.515,6.804c-18.222,0 -34.27,-3.608 -48.144,-10.825c-13.873,-7.217 -24.589,-17.269 -32.147,-30.156c-7.558,-12.887 -11.337,-27.476 -11.337,-43.765c-0,-16.083 3.675,-30.568 11.026,-43.456c7.351,-12.887 17.549,-22.939 30.595,-30.156c13.045,-7.217 27.747,-10.825 44.106,-10.825c16.151,-0 30.594,3.557 43.329,10.671c12.735,7.113 22.675,17.114 29.819,30.001c7.143,12.887 10.715,27.785 10.715,44.693Zm-83.863,-54.436c-12.424,0 -22.933,3.66 -31.527,10.98c-8.593,7.32 -13.822,17.063 -15.685,29.228l94.113,0c-1.656,-11.959 -6.729,-21.65 -15.219,-29.073c-8.49,-7.423 -19.051,-11.135 -31.682,-11.135Z" style="fill-rule:nonzero;"/><path d="M500.897,258.54c-13.459,0 -26.608,-1.752 -39.447,-5.258c-12.838,-3.505 -23.088,-7.938 -30.75,-13.299l14.909,-29.383c7.455,4.949 16.411,8.918 26.868,11.908c10.457,2.99 20.759,4.484 30.905,4.484c23.192,0 34.788,-6.082 34.788,-18.248c-0,-5.773 -2.951,-9.794 -8.852,-12.062c-5.902,-2.268 -15.375,-4.434 -28.421,-6.495c-13.667,-2.062 -24.797,-4.434 -33.39,-7.114c-8.593,-2.681 -16.048,-7.372 -22.364,-14.073c-6.315,-6.701 -9.473,-16.032 -9.473,-27.991c-0,-15.671 6.574,-28.197 19.723,-37.579c13.149,-9.382 30.906,-14.073 53.269,-14.073c11.389,-0 22.778,1.289 34.167,3.866c11.389,2.578 20.707,6.031 27.954,10.361l-14.909,29.383c-14.08,-8.248 -29.921,-12.371 -47.522,-12.371c-11.389,-0 -20.034,1.701 -25.936,5.103c-5.901,3.402 -8.852,7.887 -8.852,13.454c-0,6.186 3.158,10.568 9.473,13.145c6.316,2.578 16.1,5 29.353,7.268c13.252,2.062 24.123,4.434 32.613,7.114c8.49,2.681 15.789,7.217 21.898,13.609c6.108,6.392 9.163,15.465 9.163,27.218c-0,15.465 -6.73,27.836 -20.19,37.115c-13.459,9.279 -31.785,13.918 -54.977,13.918Z" style="fill-rule:nonzero;"/><path d="M609.609,91.213l38.826,-0l-0,165.162l-38.826,0l0,-165.162Zm19.568,-27.218c-7.04,-0 -12.942,-2.217 -17.704,-6.65c-4.763,-4.433 -7.144,-9.949 -7.144,-16.547c-0,-6.598 2.381,-12.114 7.144,-16.547c4.762,-4.433 10.664,-6.65 17.704,-6.65c7.041,-0 12.942,2.113 17.705,6.34c4.763,4.227 7.144,9.537 7.144,15.929c-0,6.804 -2.33,12.526 -6.989,17.166c-4.659,4.639 -10.612,6.959 -17.86,6.959Z" style="fill-rule:nonzero;"/><path d="M863.995,91.213l0,140.11c0,58.147 -29.818,87.22 -89.454,87.22c-15.944,0 -31.061,-2.01 -45.348,-6.031c-14.288,-4.021 -26.091,-9.846 -35.41,-17.475l17.394,-29.074c7.248,5.98 16.411,10.774 27.489,14.382c11.078,3.609 22.312,5.413 33.701,5.413c18.222,0 31.578,-4.124 40.068,-12.372c8.49,-8.247 12.735,-20.825 12.735,-37.733l-0,-8.661c-6.627,7.217 -14.702,12.681 -24.228,16.393c-9.525,3.711 -19.982,5.567 -31.371,5.567c-15.737,0 -29.973,-3.35 -42.708,-10.052c-12.735,-6.701 -22.778,-16.135 -30.129,-28.3c-7.351,-12.166 -11.026,-26.084 -11.026,-41.755c-0,-15.671 3.675,-29.537 11.026,-41.6c7.351,-12.062 17.394,-21.392 30.129,-27.991c12.735,-6.598 26.971,-9.897 42.708,-9.897c12.01,-0 22.933,1.959 32.769,5.877c9.836,3.917 18.067,9.897 24.693,17.939l0,-21.96l36.962,-0Zm-88.522,124.954c14.702,0 26.764,-4.381 36.185,-13.145c9.422,-8.763 14.133,-20.155 14.133,-34.177c-0,-13.815 -4.711,-25.052 -14.133,-33.713c-9.421,-8.66 -21.483,-12.99 -36.185,-12.99c-14.909,0 -27.075,4.33 -36.496,12.99c-9.422,8.661 -14.133,19.898 -14.133,33.713c0,14.022 4.711,25.414 14.133,34.177c9.421,8.764 21.587,13.145 36.496,13.145Z" style="fill-rule:nonzero;"/><path d="M1009.05,89.357c20.915,-0 37.687,6.083 50.319,18.248c12.631,12.166 18.947,30.208 18.947,54.127l-0,94.643l-38.826,0l-0,-89.695c-0,-14.433 -3.417,-25.31 -10.25,-32.63c-6.833,-7.32 -16.566,-10.98 -29.197,-10.98c-14.288,-0 -25.573,4.278 -33.856,12.836c-8.283,8.557 -12.424,20.877 -12.424,36.96l-0,83.509l-38.826,0l-0,-165.162l36.962,-0l-0,21.341c6.419,-7.629 14.495,-13.403 24.227,-17.32c9.733,-3.918 20.707,-5.877 32.924,-5.877Z" style="fill-rule:nonzero;"/></g><g><path d="M151.776,430.783l95.045,-0c23.192,-0 43.796,4.485 61.811,13.454c18.015,8.97 31.992,21.651 41.932,38.043c9.939,16.393 14.909,35.311 14.909,56.755c-0,21.445 -4.97,40.363 -14.909,56.756c-9.94,16.392 -23.917,29.073 -41.932,38.043c-18.015,8.969 -38.619,13.454 -61.811,13.454l-95.045,0l0,-216.505Zm93.182,182.483c15.944,-0 29.973,-3.042 42.087,-9.124c12.114,-6.083 21.432,-14.743 27.954,-25.981c6.523,-11.238 9.785,-24.279 9.785,-39.126c-0,-14.846 -3.262,-27.887 -9.785,-39.125c-6.522,-11.238 -15.84,-19.898 -27.954,-25.981c-12.114,-6.083 -26.143,-9.124 -42.087,-9.124l-52.803,0l-0,148.461l52.803,-0Z" style="fill-rule:nonzero;"/><path d="M560.533,565.635c0,2.68 -0.207,6.495 -0.621,11.444l-130.144,-0c2.278,12.165 8.231,21.805 17.86,28.918c9.629,7.114 21.587,10.671 35.875,10.671c18.222,0 33.235,-5.98 45.038,-17.939l20.811,23.816c-7.455,8.866 -16.877,15.567 -28.265,20.104c-11.389,4.536 -24.228,6.804 -38.516,6.804c-18.222,0 -34.27,-3.608 -48.144,-10.825c-13.873,-7.217 -24.589,-17.269 -32.147,-30.156c-7.558,-12.887 -11.337,-27.476 -11.337,-43.765c-0,-16.083 3.675,-30.569 11.026,-43.456c7.351,-12.887 17.549,-22.939 30.595,-30.156c13.045,-7.217 27.747,-10.825 44.106,-10.825c16.151,-0 30.595,3.557 43.329,10.67c12.735,7.114 22.675,17.115 29.819,30.002c7.143,12.887 10.715,27.785 10.715,44.693Zm-83.863,-54.436c-12.424,0 -22.933,3.66 -31.527,10.98c-8.593,7.32 -13.822,17.063 -15.685,29.228l94.113,0c-1.656,-11.959 -6.729,-21.65 -15.219,-29.073c-8.49,-7.423 -19.051,-11.135 -31.682,-11.135Z" style="fill-rule:nonzero;"/><path d="M649.056,649.453c-13.459,0 -26.608,-1.753 -39.447,-5.258c-12.838,-3.505 -23.088,-7.938 -30.75,-13.299l14.909,-29.383c7.455,4.948 16.411,8.918 26.868,11.907c10.457,2.99 20.759,4.485 30.905,4.485c23.192,0 34.788,-6.083 34.788,-18.248c-0,-5.774 -2.951,-9.794 -8.852,-12.063c-5.902,-2.268 -15.375,-4.433 -28.421,-6.495c-13.666,-2.062 -24.797,-4.433 -33.39,-7.113c-8.593,-2.681 -16.048,-7.372 -22.364,-14.073c-6.315,-6.702 -9.473,-16.032 -9.473,-27.991c-0,-15.671 6.574,-28.198 19.723,-37.579c13.149,-9.382 30.906,-14.073 53.269,-14.073c11.389,-0 22.778,1.288 34.167,3.866c11.389,2.577 20.707,6.031 27.955,10.361l-14.91,29.383c-14.08,-8.248 -29.921,-12.372 -47.522,-12.372c-11.389,0 -20.034,1.701 -25.936,5.104c-5.901,3.402 -8.852,7.887 -8.852,13.454c-0,6.186 3.158,10.567 9.473,13.145c6.316,2.577 16.1,5 29.353,7.268c13.252,2.062 24.123,4.433 32.613,7.114c8.49,2.681 15.789,7.217 21.898,13.609c6.109,6.392 9.163,15.465 9.163,27.218c-0,15.464 -6.73,27.836 -20.19,37.115c-13.459,9.279 -31.785,13.918 -54.977,13.918Z" style="fill-rule:nonzero;"/><path d="M825.48,576.46l-28.886,27.218l-0,43.61l-38.826,0l0,-229.495l38.826,-0l-0,138.563l80.447,-74.231l46.591,0l-69.265,69.282l75.788,95.881l-47.213,0l-57.462,-70.828Z" style="fill-rule:nonzero;"/></g><path d="M45.234,344.464l-40.728,-0.24l-1.81,304.989l40.727,0.24l1.811,-304.989Z"/><rect x="1034.48" y="344.464" width="40.728" height="304.989"/><path d="M1075.21,344.224l-41.537,42.902l-988.518,0l-41.536,-42.902l1071.59,0Z"/></svg>