<?xml version="1.0" standalone="no"?>
<!DOCTYPE svg PUBLIC "-//W3C//DTD SVG 20010904//EN"
 "http://www.w3.org/TR/2001/REC-SVG-20010904/DTD/svg10.dtd">
<svg version="1.0" xmlns="http://www.w3.org/2000/svg"
 width="517.000000pt" height="517.000000pt" viewBox="0 0 517.000000 517.000000"
 preserveAspectRatio="xMidYMid meet">
<metadata>
Created by potrace 1.11, written by Peter Selinger 2001-2013
</metadata>
<g transform="translate(0.000000,517.000000) scale(0.100000,-0.100000)"
fill="#000000" stroke="none">
<path d="M2953 4094 c-46 -23 -69 -76 -54 -125 30 -98 169 -110 217 -18 37 73
-11 152 -96 157 -19 1 -49 -5 -67 -14z"/>
<path d="M35 4002 l-31 -3 0 -519 c1 -459 2 -520 16 -521 8 0 132 0 275 0 226
0 270 3 338 21 183 46 311 157 369 319 26 73 33 243 12 319 -45 168 -155 285
-328 348 -33 12 -63 22 -66 22 -3 0 -25 3 -50 7 -46 6 -481 12 -535 7z m510
-173 c188 -35 299 -179 288 -374 -8 -136 -73 -237 -189 -291 -72 -34 -127 -42
-296 -43 l-148 -2 -1 171 c0 93 0 199 0 235 0 36 0 121 0 190 l1 126 148 -2
c81 0 170 -5 197 -10z"/>
<path d="M1499 3759 c-238 -33 -388 -260 -332 -503 49 -217 243 -331 511 -301
80 9 228 85 231 118 1 5 -20 33 -45 63 -45 52 -48 54 -68 39 -96 -71 -230 -89
-322 -42 -74 38 -115 85 -126 142 -3 20 3 20 292 22 162 0 303 2 313 2 17 1
18 8 14 79 -9 128 -59 232 -145 300 -67 54 -117 71 -247 86 -11 1 -45 -1 -76
-5z m180 -173 c50 -27 111 -112 111 -156 0 -6 -77 -10 -224 -10 l-225 0 5 26
c10 55 57 115 113 144 58 30 158 28 220 -4z"/>
<path d="M2417 3764 c-1 -1 -27 -4 -57 -7 -137 -14 -236 -78 -268 -173 -14
-43 -8 -133 11 -171 19 -36 71 -77 123 -97 22 -8 97 -26 167 -40 151 -29 177
-42 177 -91 0 -26 -7 -38 -32 -56 -64 -46 -274 -28 -376 31 l-32 19 -36 -70
c-19 -39 -34 -72 -32 -73 111 -71 285 -103 433 -81 170 26 271 129 258 264
-10 112 -77 161 -273 200 -185 37 -204 47 -215 110 -7 44 68 81 164 81 67 0
178 -23 196 -41 21 -21 41 -6 73 58 38 76 40 73 -60 104 -54 17 -212 40 -221
33z"/>
<path d="M3630 3759 c-124 -16 -210 -65 -278 -157 -79 -109 -89 -270 -27 -398
63 -129 194 -206 349 -207 96 0 165 18 223 59 l48 34 3 -44 c7 -102 -48 -188
-136 -214 -109 -33 -315 3 -385 65 -20 19 -15 24 -66 -59 l-41 -68 41 -26 c83
-52 212 -84 339 -84 250 0 391 99 429 301 5 30 10 221 11 424 l0 370 -87 0
-88 0 -1 -35 c-3 -73 -2 -71 -31 -43 -65 61 -193 95 -303 82z m195 -178 c185
-82 167 -358 -29 -416 -98 -29 -218 2 -275 72 -68 82 -62 225 13 299 70 69
193 88 291 45z"/>
<path d="M4778 3758 c-70 -9 -148 -41 -179 -74 -28 -30 -38 -30 -37 -1 3 75 7
72 -89 72 l-88 0 0 -385 c-1 -212 1 -392 3 -400 2 -12 20 -15 90 -14 84 1 87
2 89 25 1 13 4 123 6 244 2 203 4 223 24 261 12 23 36 53 53 67 85 72 247 57
299 -26 30 -49 34 -94 34 -339 0 -126 3 -228 6 -229 9 -1 132 -1 159 0 l23 1
-1 259 c-1 279 -8 326 -54 406 -60 101 -190 152 -338 133z"/>
<path d="M2923 3746 c-4 -5 -7 -184 -7 -398 l-1 -388 25 -1 c56 -2 152 1 158
5 5 3 8 764 3 786 -2 10 -172 6 -178 -4z"/>
<path d="M9 2460 c0 -41 -2 -373 -4 -738 l-4 -662 97 0 98 0 3 473 c1 259 3
544 4 632 l2 160 2378 0 2377 1 0 -633 0 -633 98 0 97 0 -1 733 c-1 402 -2
734 -3 737 0 3 -1157 5 -2571 5 l-2570 0 -1 -75z"/>
<path d="M3630 1625 l0 -555 93 0 92 0 0 103 -1 102 70 68 71 68 19 -23 c10
-13 72 -89 138 -170 l119 -148 109 0 c61 0 110 2 110 5 0 3 -52 72 -116 153
-141 180 -159 203 -201 256 -18 22 -33 44 -33 48 0 4 72 80 160 169 88 88 160
162 160 164 0 2 -49 4 -108 4 l-108 -1 -45 -40 c-24 -23 -91 -85 -149 -139
-157 -145 -183 -169 -189 -169 -4 0 -6 143 -5 317 0 175 -1 324 -4 331 -3 8
-31 12 -93 12 l-89 0 0 -555z"/>
<path d="M718 2100 c-2 -8 -3 -242 -3 -520 l1 -505 269 -1 c308 -2 366 6 485
64 193 95 294 294 268 529 -24 210 -174 372 -398 429 -94 25 -617 28 -622 4z
m614 -179 c126 -49 206 -163 213 -303 10 -208 -107 -349 -310 -375 -55 -8
-281 -10 -317 -4 -5 0 -8 161 -8 357 l0 356 183 -4 c159 -4 189 -7 239 -27z"/>
<path d="M2165 1860 c-81 -22 -132 -50 -181 -99 -77 -77 -115 -174 -115 -295
0 -83 7 -111 41 -181 74 -152 234 -235 427 -221 118 8 180 30 251 89 l41 34
-46 54 c-25 30 -47 56 -49 58 -2 2 -21 -8 -43 -23 -102 -71 -256 -73 -351 -6
-37 26 -80 91 -80 120 0 20 6 20 310 20 l310 0 0 58 c0 104 -42 221 -103 285
-100 105 -266 148 -412 107z m229 -163 c45 -25 91 -86 101 -132 l6 -31 -226 0
c-124 0 -225 0 -225 1 0 1 5 17 11 36 25 73 101 143 165 151 58 8 128 -3 168
-25z"/>
<path d="M3011 1859 c-152 -39 -225 -126 -215 -257 6 -76 53 -135 137 -171 26
-11 47 -18 47 -16 0 3 10 1 23 -4 13 -5 41 -12 63 -15 94 -15 112 -18 156 -32
44 -14 59 -31 63 -69 10 -89 -223 -108 -391 -31 l-54 25 -35 -69 -35 -70 23
-14 c56 -38 196 -71 307 -75 160 -5 295 55 348 154 23 44 21 151 -3 193 -21
35 -72 74 -120 92 -16 6 -84 22 -149 36 -176 36 -222 66 -193 125 31 63 182
83 302 40 33 -12 67 -24 75 -27 13 -4 48 54 78 127 5 11 -54 36 -128 55 -91
23 -214 25 -299 3z"/>
</g>
</svg>
