<svg viewBox="0 0 658 672" fill="none" xmlns="http://www.w3.org/2000/svg">
    <path fill-rule="evenodd" clip-rule="evenodd" d="M350.214 0.00266004C415.838 0.379008 475.743 41.421 521.746 88.2225C562.659 129.845 567.814 191.605 591.138 245.106C613.952 297.44 663.65 342.549 657.356 399.292C651.038 456.249 594.745 491.247 558.876 535.939C521.374 582.666 499.591 651.202 441.978 667.652C384.368 684.1 328.581 640.3 273.172 617.512C223.593 597.122 177.496 574.366 135.166 541.472C83.702 501.479 5.86359 470.382 0.275404 405.446C-5.38256 339.698 77.6565 302.984 109.677 245.283C138.214 193.86 136.235 128.237 177.412 86.2478C223.418 39.3346 284.508 -0.374155 350.214 0.00266004Z" fill="url(#paint0_linear)"/>
    <defs>
    <linearGradient id="paint0_linear" x1="169.5" y1="11.5" x2="471" y2="176" gradientUnits="userSpaceOnUse">
    <stop offset="0.255208" stop-color="#FF9431"/>
    <stop offset="1" stop-color="#FFEC3C"/>
    </linearGradient>
    </defs>
    </svg>
