<svg viewBox="0 0 393 672" fill="none" xmlns="http://www.w3.org/2000/svg">
    <path fill-rule="evenodd" clip-rule="evenodd" d="M85.2138 0.00266004C150.838 0.379008 210.743 41.421 256.746 88.2225C297.659 129.845 302.814 191.605 326.138 245.106C348.952 297.44 398.65 342.549 392.356 399.292C386.038 456.249 329.745 491.247 293.876 535.939C256.374 582.666 234.591 651.202 176.978 667.652C119.368 684.1 63.581 640.3 8.17212 617.512C-41.4073 597.122 -87.5038 574.366 -129.834 541.472C-181.298 501.479 -259.136 470.382 -264.725 405.446C-270.383 339.698 -187.344 302.984 -155.323 245.283C-126.786 193.86 -128.765 128.237 -87.5876 86.2478C-41.5816 39.3346 19.508 -0.374155 85.2138 0.00266004Z" fill="url(#paint0_linear)"/>
    <defs>
    <linearGradient id="paint0_linear" x1="-95.5" y1="11.5" x2="206" y2="176" gradientUnits="userSpaceOnUse">
    <stop offset="0.255208" stop-color="#FF9431"/>
    <stop offset="1" stop-color="#FFEC3C"/>
    </linearGradient>
    </defs>
    </svg>
