<svg viewBox="0 0 611 460" fill="none" xmlns="http://www.w3.org/2000/svg">
    <path d="M610.917 409.095H0.0925293V459.461H610.917V409.095Z" fill="#9DB9BB"/>
    <path opacity="0.63" d="M610.917 396.694H0.0925293V427.191H610.917V396.694Z" fill="#A8A8A8"/>
    <path d="M610.79 0.607117H309.995V236.488H610.79V0.607117Z" fill="#9DB9BB"/>
    <path d="M345.16 236.488H309.995L515.29 0.607117H550.454L345.16 236.488Z" fill="white"/>
    <path d="M405.622 236.488H388.04L593.335 0.607117H610.917L405.622 236.488Z" fill="white"/>
    <path d="M234.227 0.607117H0.0925293V236.488H234.227V0.607117Z" fill="#9DB9BB"/>
    <path d="M173.764 0.607117L74.8486 114.371L0.0925293 200.169V159.928L74.8486 74.0034L138.727 0.607117H173.764Z" fill="white"/>
    <path d="M28.9325 236.488H11.4768L216.771 0.607117H234.227L28.9325 236.488Z" fill="white"/>
    <path d="M201.845 84.0005L156.182 84.3801C155.044 84.3801 154.032 83.4943 154.032 82.3554L153.905 66.4107C153.905 65.2718 154.791 64.2595 155.929 64.2595L201.592 63.8798C202.731 63.8798 203.743 64.7656 203.743 65.9046L203.869 81.8492C203.869 82.9881 202.984 84.0005 201.845 84.0005Z" fill="#FF9431"/>
    <path d="M171.234 80.0776L176.168 89.442C176.8 90.5809 178.444 90.7074 179.077 89.5685L184.769 80.0776H171.234Z" fill="#FF9431"/>
    <path d="M169.084 74.13C169.084 75.2689 168.199 76.1547 167.06 76.1547C165.922 76.1547 165.037 75.2689 165.037 74.13C165.037 72.9911 165.922 72.1053 167.06 72.1053C168.199 72.2318 169.084 73.1176 169.084 74.13Z" fill="white"/>
    <path d="M180.974 74.13C180.974 75.2689 180.089 76.1547 178.951 76.1547C177.812 76.1547 176.927 75.2689 176.927 74.13C176.927 72.9911 177.812 72.1053 178.951 72.1053C179.963 72.1053 180.848 72.9911 180.974 74.13Z" fill="white"/>
    <path d="M192.738 74.0034C192.738 75.1423 191.853 76.0282 190.714 76.0282C189.576 76.0282 188.69 75.1423 188.69 74.0034C188.69 72.8645 189.576 71.9787 190.714 71.9787C191.853 71.9787 192.738 72.8645 192.738 74.0034Z" fill="white"/>
    <path d="M113.808 417.068L110.646 387.203L92.178 386.317L95.4667 419.093H110.519L113.808 417.068Z" fill="#FACBB6"/>
    <path d="M93.0637 410.108C93.0637 410.108 109.002 416.688 116.338 405.805L150.744 426.179L88.3835 426.559L93.0637 410.108Z" fill="#01384F"/>
    <path d="M150.727 426.225L88.3672 426.667L88.4093 432.615L150.769 432.173L150.727 426.225Z" fill="#01384F"/>
    <path d="M72.8247 202.194L86.8652 397.833L115.832 397.58C115.832 397.58 114.567 276.223 103.056 200.296L72.8247 202.194Z" fill="#01384F"/>
    <path d="M70.1686 417.321L70.6745 387.456L52.3333 386.57L51.8274 419.472L66.8798 419.346L70.1686 417.321Z" fill="#FACBB6"/>
    <path d="M49.4241 410.361C49.4241 410.361 65.3619 416.941 72.6984 406.058L107.104 426.432L44.7439 426.812L49.4241 410.361Z" fill="#01384F"/>
    <path d="M107.087 426.605L44.7273 427.047L44.7694 432.995L107.129 432.553L107.087 426.605Z" fill="#01384F"/>
    <path d="M100.906 204.092L89.0157 203.712V202.827L44.2379 202.573C39.8108 274.325 45.7558 398.086 45.7558 398.086L78.7699 397.833L87.7508 227.503L100.906 204.092Z" fill="#004970"/>
    <path d="M51.8271 66.4107C51.8271 66.4107 51.4476 51.9846 73.204 50.9722C92.0511 50.0864 94.581 57.9322 96.2253 63.2471C97.8697 68.562 74.9749 82.9882 74.9749 82.9882L51.8271 66.4107Z" fill="#181E22"/>
    <path d="M63.4643 114.498L62.3259 85.519L80.9201 84.7598L82.0585 112.726C82.3115 117.915 78.2638 120.192 73.0776 120.446C67.8915 120.572 63.5908 119.56 63.4643 114.498Z" fill="#FACBB6"/>
    <path d="M62.3259 88.6827C62.3259 88.6827 59.6696 105.893 81.932 110.069L81.2995 96.7816L62.3259 88.6827Z" fill="#F1C4B2"/>
    <path d="M86.7388 55.0216C80.0347 55.1482 99.8938 54.7685 96.4786 75.775L89.901 66.7903L86.7388 55.0216Z" fill="#020102"/>
    <path d="M78.3903 104.248C88.3831 103.742 96.2256 97.4143 95.7196 87.4172L94.7077 67.5496C94.4547 63.2471 90.7864 59.8303 86.4858 60.0834L65.9942 61.0958C61.6935 61.3489 58.2783 65.0187 58.5313 69.3212L59.2902 86.4049C59.9227 96.2754 70.0419 104.627 78.3903 104.248Z" fill="#FACBB6"/>
    <path d="M60.555 80.7103C60.555 80.7103 70.4213 74.13 66.1206 60.9693L56.0014 61.4755C56.0014 61.4755 54.4835 59.1977 52.4596 62.3613C50.4358 65.3984 55.1159 79.8245 55.1159 79.8245L60.555 80.7103Z" fill="#020102"/>
    <path d="M63.3379 73.4973L67.0061 63.5002C67.0061 63.5002 91.1659 66.5373 97.1109 59.7038C102.803 53.1235 98.1228 43.2529 93.3162 42.2406C89.5215 41.4813 85.4738 44.898 82.5645 46.5431C79.6552 48.1882 72.8247 46.6697 70.6743 46.5431C68.6505 46.4166 59.6696 44.6449 56.8868 54.0093C56.8868 54.0093 42.3404 59.4507 57.3928 84.0005C57.5193 84.0005 63.4644 80.3307 63.3379 73.4973Z" fill="#020102"/>
    <path d="M65.6148 72.1052C65.6148 72.1052 64.9823 85.3925 67.8916 89.1888C70.8009 92.9852 72.4453 89.0623 82.944 87.4172C93.4427 85.7721 96.0991 90.5809 96.0991 90.5809C96.0991 90.5809 95.5931 103.995 81.8056 104.627C71.0539 105.134 54.9895 102.856 57.1399 85.6456C59.1637 68.562 58.4048 64.1329 58.4048 64.1329L65.6148 72.1052Z" fill="#020102"/>
    <path d="M84.9679 125.887C84.9679 125.887 81.2997 134.366 99.5144 177.138C99.5144 177.138 108.622 195.487 112.796 195.993C119.753 196.879 148.466 194.728 163.139 173.215L143.407 156.005L121.65 168.786L108.495 135.631C108.495 135.631 100.779 113.612 84.9679 125.887Z" fill="#2A94F4"/>
    <path d="M63.0851 113.992L37.4075 124.748C35.3836 125.634 34.1187 127.912 34.3717 130.19L43.226 206.876C43.226 206.876 78.77 211.052 105.207 205.484L103.056 130.822C103.309 128.544 102.424 126.267 100.779 124.622L82.1852 112.6L63.0851 113.992Z" fill="#2A94F4"/>
    <path d="M63.5911 113.992L77.2521 119.56L82.4382 112.22L63.5911 113.992Z" fill="#FACBB6"/>
    <path d="M90.1541 184.731C90.1541 184.731 96.3521 198.651 69.2831 194.854L41.3286 197.005L43.6055 188.527L61.4407 186.755L82.4381 186.629L90.1541 184.731Z" fill="#FACBB6"/>
    <path d="M36.3955 125.507C36.3955 125.507 23.9994 129.304 9.07345 171.57C9.07345 171.57 3.50786 187.768 6.29066 190.931C10.9708 195.993 37.6604 203.586 62.8321 197.512L59.9228 184.351L35.1306 179.542L47.4002 147.4C47.4002 147.526 56.381 126.773 36.3955 125.507Z" fill="#2A94F4"/>
    <path d="M53.9776 187.388L103.436 187.008V181.44L53.9776 181.82C52.4597 181.82 51.1948 183.085 51.1948 184.604C51.1948 186.123 52.4597 187.388 53.9776 187.388Z" fill="#FF9431"/>
    <path d="M96.9846 187.008L162.507 186.502C166.302 186.502 169.59 183.971 170.602 180.301L182.998 134.239C184.137 130.19 180.975 126.14 176.8 126.267L116.591 126.646C114.061 126.646 111.911 128.418 111.278 130.822L96.9846 187.008Z" fill="#FF9431"/>
    <path d="M137.841 156.764C137.841 160.181 140.624 162.965 144.039 162.965C147.455 162.965 150.237 160.181 150.237 156.764C150.237 153.347 147.455 150.563 144.039 150.563C140.624 150.563 137.841 153.347 137.841 156.764Z" fill="white"/>
    <path d="M468.867 162.585L477.975 168.153L477.216 173.848L484.426 180.681L475.066 192.323L453.056 176.505C453.056 176.505 459.001 156.638 460.393 157.144C461.658 157.523 468.867 162.585 468.867 162.585Z" fill="#FACBB6"/>
    <path d="M455.839 157.017L459.76 186.376L475.065 186.882L478.734 157.017H455.839Z" fill="#FDE6CF"/>
    <path d="M452.55 157.397H481.39V154.486H478.734V149.931L455.207 153.221V154.866H452.55V157.776" fill="#01384F"/>
    <path d="M454.574 177.011C449.261 177.518 455.965 163.344 455.965 163.344C455.965 163.344 470.385 162.459 470.512 163.091C470.638 163.851 470.638 165.116 469.5 165.369C468.361 165.622 459.381 166.761 459.381 166.761C459.381 166.761 468.741 167.141 468.614 168.153C468.361 169.545 467.223 169.672 464.44 170.178C462.037 170.558 456.851 170.684 456.851 170.684C456.851 170.684 466.717 170.937 466.591 171.443C466.338 172.076 466.97 173.974 463.681 173.595C455.712 172.709 454.574 177.011 454.574 177.011Z" fill="#FACBB6"/>
    <path d="M477.721 164.863C477.721 164.863 481.137 158.156 485.437 158.536C485.437 158.536 480.378 164.61 479.619 168.533C478.986 172.582 478.607 175.366 478.607 175.366H476.33L477.721 164.863Z" fill="#FACBB6"/>
    <path d="M519.464 233.577C519.464 233.577 504.791 333.168 511.621 354.301C518.452 375.434 521.108 394.543 521.108 394.543L555.134 384.925C555.134 384.925 543.877 335.066 542.106 325.576C540.461 315.958 557.917 238.259 557.917 238.259L519.464 233.577Z" fill="#183F71"/>
    <path d="M535.528 240.79L551.592 400.744H584.227C584.227 400.744 573.728 231.426 575.625 229.907C577.523 228.642 535.528 240.79 535.528 240.79Z" fill="#07488C"/>
    <path d="M522.753 143.224C522.753 143.224 519.337 196.879 511.874 194.981C504.411 193.083 484.299 179.036 484.299 179.036L472.03 191.944C472.03 191.944 509.218 231.679 524.524 215.481C539.829 199.157 522.753 143.224 522.753 143.224Z" fill="#07488C"/>
    <path d="M532.872 427.571L530.721 416.688L554.502 407.577L558.296 423.648L557.031 423.901C551.719 426.306 525.788 437.821 521.74 438.074C516.934 438.454 532.872 427.571 532.872 427.571Z" fill="#01384F"/>
    <path d="M589.287 270.022L586.63 273.565C586.63 273.565 585.365 275.97 582.33 279.64C581.571 280.652 580.559 281.411 579.547 282.044C578.282 282.803 576.511 283.816 575.246 284.069C573.855 284.322 573.475 286.22 574.74 286.726C576.005 287.232 579.926 286.473 583.595 283.816C587.389 281.032 585.618 287.992 584.986 290.522C584.353 293.053 582.962 300.899 583.595 301.785C584.606 302.924 585.998 302.165 586.63 299.634C587.136 297.103 589.287 289.637 590.678 290.016C592.069 290.396 588.781 303.177 588.781 303.177C588.781 303.177 587.642 305.834 589.16 306.341C591.943 307.226 594.346 293.306 594.473 292.041C594.599 291.155 596.117 291.408 595.864 292.421C595.611 293.433 592.322 305.075 595.232 306.088C597.382 306.72 597.256 294.698 599.406 292.674C601.43 290.649 598.521 301.785 600.671 302.418C601.43 302.671 602.062 302.671 602.821 295.964C603.58 289.13 602.442 270.275 602.442 270.275L588.907 270.402" fill="#FACBB6"/>
    <path d="M542.105 125.254C542.358 123.103 541.22 114.118 541.22 114.118C541.22 114.118 532.618 113.486 531.86 105.387C531.101 97.2878 530.974 78.5591 530.974 78.5591L546.279 70.8398L563.735 82.735L567.783 91.5932L562.597 112.726V123.356L542.105 125.254Z" fill="#FACBB6"/>
    <path d="M541.22 114.118C541.22 114.118 546.912 113.992 552.224 110.195C552.224 110.195 549.948 116.27 541.346 116.143L541.22 114.118Z" fill="#EEC2B0"/>
    <path d="M567.404 100.451C565.127 105.387 563.735 112.6 563.735 112.6C562.47 114.878 562.091 107.791 562.091 107.791C562.091 107.791 560.952 100.958 561.964 98.3001C561.964 98.3001 566.265 99.6921 567.277 92.2259C567.783 88.5561 561.964 86.7845 560.446 91.2136L556.905 91.5932C556.905 91.5932 556.652 77.7998 548.303 80.3307C548.303 80.3307 542.232 83.874 538.69 81.7227C535.148 79.5714 535.401 78.8122 535.401 78.8122C535.401 78.8122 533.63 82.482 529.077 80.0776C524.397 77.6732 523.891 73.3707 525.409 71.346C526.294 70.2071 527.179 68.8151 528.697 68.562C530.215 68.3089 531.86 68.9416 532.871 70.0805C531.733 68.4354 532.492 66.1576 534.263 65.0187C535.907 64.0063 538.184 64.0063 540.081 64.7656C541.979 65.5249 543.497 66.7903 545.015 67.9292C546.027 65.0187 549.315 62.994 552.604 63.2471C555.766 63.5002 558.676 66.0311 559.182 69.0682C560.952 67.0434 564.241 66.5373 566.771 67.6762C569.301 68.8151 570.945 71.346 571.451 74.0034C571.957 76.6609 571.325 79.3183 570.313 81.8492C572.21 80.8369 574.866 81.5961 576.258 83.2412C577.649 84.8863 577.523 87.4172 576.637 89.3154C575.625 91.2136 573.855 92.7321 571.957 93.7445C573.475 94.8834 573.855 97.0347 572.969 98.6798C572.084 100.325 569.933 101.084 568.162 100.451" fill="#01384F"/>
    <path d="M561.332 95.6427C561.332 95.6427 561.459 95.7692 561.711 95.8958C561.964 96.0223 562.217 96.0223 562.597 96.0223C563.356 95.7692 564.115 94.6303 564.241 93.4914C564.241 92.8587 564.241 92.226 563.988 91.7198C563.862 91.2136 563.482 90.8339 563.103 90.7074C562.723 90.5809 562.47 90.8339 562.344 90.9605C562.217 91.087 562.217 91.3401 562.217 91.3401C562.217 91.3401 562.091 91.2136 562.091 90.9605C562.091 90.8339 562.217 90.7074 562.344 90.5809C562.47 90.4543 562.723 90.4543 563.103 90.4543C563.609 90.5809 564.115 91.087 564.368 91.5932C564.621 92.0994 564.747 92.8587 564.621 93.4914C564.494 94.8834 563.609 96.1489 562.597 96.4019C562.091 96.5285 561.712 96.2754 561.459 96.1489C561.332 95.7692 561.332 95.6427 561.332 95.6427Z" fill="#F19180"/>
    <path d="M596.623 146.514C596.623 146.514 590.804 120.699 562.47 123.356C536.666 125.887 536.666 125.887 536.666 125.887C536.666 125.887 518.958 133.1 521.361 153.474C523.764 173.848 525.029 192.323 524.397 195.993C523.764 199.536 517.566 231.552 519.337 233.83C538.058 255.596 585.492 220.923 585.492 220.923L596.623 146.514Z" fill="#2A94F4"/>
    <path d="M562.471 123.356L569.048 274.451L588.654 264.328L586.63 130.316C586.63 130.19 581.318 121.584 562.471 123.356Z" fill="#07488C"/>
    <path d="M603.327 272.806L596.623 146.514C594.473 138.795 590.046 132.847 584.227 127.785V274.451L603.327 272.806Z" fill="#07488C"/>
    <path d="M542.105 125.254C542.105 125.254 524.397 133.606 525.282 162.079C526.168 190.425 514.657 270.528 514.657 270.528L499.984 267.618C499.984 267.618 517.06 191.691 517.819 178.277C518.578 164.736 517.313 145.502 526.8 132.214C533.63 122.85 542.105 125.254 542.105 125.254Z" fill="#07488C"/>
    <path d="M562.471 123.356C562.471 123.356 568.289 135.758 567.657 140.313C567.024 144.869 565.127 154.486 565.127 154.486C565.127 154.486 569.428 157.017 569.048 159.168C568.669 161.32 564.621 183.212 564.621 183.212L562.471 123.356Z" fill="#1E3058"/>
    <path d="M581.065 154.233C581.065 154.233 581.191 154.613 581.318 155.499C581.444 156.258 581.444 157.523 581.57 159.042C581.823 162.079 582.076 166.508 582.329 171.949C582.835 182.832 583.088 197.891 583.341 214.469C583.594 231.046 583.847 246.105 583.974 256.988C584.1 262.429 584.227 266.732 584.227 269.896C584.227 271.414 584.227 272.553 584.227 273.439C584.227 274.198 584.227 274.704 584.1 274.704C584.1 274.704 583.974 274.325 583.847 273.439C583.721 272.68 583.721 271.414 583.594 269.896C583.341 266.858 583.088 262.429 582.835 256.988C582.329 246.105 582.076 231.046 581.823 214.469C581.57 197.891 581.317 182.832 581.191 171.949C581.064 166.508 580.938 162.206 580.938 159.042C580.938 157.523 580.938 156.384 580.938 155.499C580.938 154.613 581.065 154.233 581.065 154.233Z" fill="#1E3058"/>
    <path d="M532.619 415.929C532.872 415.802 526.674 393.024 526.674 393.024L547.545 387.203L551.972 408.589L532.619 415.929Z" fill="#FACBB6"/>
    <path d="M580.685 400.743H557.031V418.586H580.685V400.743Z" fill="#FACBB6"/>
    <path d="M554.628 428.33L556.778 417.447H582.33L579.673 433.392L578.282 433.519C572.463 433.772 543.876 435.29 539.955 434.151C535.655 432.886 554.628 428.33 554.628 428.33Z" fill="#01384F"/>
    <path d="M438.383 74.0034C438.383 89.0623 426.114 101.337 411.061 101.337C396.009 101.337 383.739 89.0623 383.739 74.0034C383.739 58.9445 396.009 46.6696 411.061 46.6696C412.579 46.6696 413.971 46.7962 415.488 47.0493L411.061 74.0034L436.359 63.5002C437.624 66.6638 438.383 70.2071 438.383 74.0034Z" fill="#FF9431"/>
    <path d="M445.467 54.3889L420.168 64.8922L424.596 37.938C434.082 39.33 441.925 45.7838 445.467 54.3889Z" fill="#FF9431"/>
    <path d="M332.258 101.211H289.883C288.998 101.211 288.112 100.451 288.112 99.439V73.2441C288.112 72.3583 288.871 71.4725 289.883 71.4725H332.258C333.143 71.4725 334.028 72.2318 334.028 73.2441V99.439C333.902 100.451 333.143 101.211 332.258 101.211Z" fill="#FF9431"/>
    <path d="M291.401 75.2689L311.133 90.2012L331.372 74.2565" fill="#FF9431"/>
    <path d="M291.401 75.2689L311.133 90.2012L331.372 74.2565" stroke="white" stroke-width="1.062" stroke-miterlimit="10"/>
    <path d="M290.769 98.5532L302.532 84.0005" stroke="white" stroke-width="1.062" stroke-miterlimit="10"/>
    <path d="M330.613 98.5532L318.85 84.0005" stroke="white" stroke-width="1.062" stroke-miterlimit="10"/>
    <path d="M342.63 298.242C342.63 298.242 291.148 296.217 283.179 277.109C275.21 258 271.289 207.762 246.244 205.737C221.198 203.712 204.628 202.447 204.628 219.657C204.628 236.867 193.37 292.927 227.776 301.532C260.031 309.631 303.291 325.196 335.799 308.492C339.72 306.594 342.25 302.671 342.63 298.242Z" fill="#F9B03D"/>
    <path d="M294.942 309.378L334.155 433.392L347.816 437.695L309.109 315.705C304.809 315.072 300.508 314.439 294.942 309.378Z" fill="#2A94F4"/>
    <path d="M187.552 433.645L232.203 292.421H219.934L175.282 433.645H187.552Z" fill="#2A94F4"/>
    <path d="M205.26 213.963C205.26 213.963 213.229 269.01 224.361 271.667C235.492 274.325 257.628 271.288 266.482 277.741C275.336 284.195 303.923 315.958 303.923 315.958C303.923 315.958 236.63 314.566 210.194 293.433C183.883 272.553 205.26 213.963 205.26 213.963Z" fill="#FBC36B"/>
    <path d="M294.816 129.557C295.954 132.467 295.069 135.631 294.31 138.668C293.551 141.705 293.172 145.122 295.196 147.653C297.219 150.184 301.014 151.07 303.67 153.221C306.2 155.246 307.592 158.409 307.086 161.32C306.706 163.344 305.568 165.496 306.833 167.267C307.465 168.153 308.604 168.659 309.742 169.166C312.145 170.178 314.675 171.064 316.952 172.329C319.229 173.595 321.253 175.24 322.265 177.518C323.656 180.555 322.644 183.971 321.379 187.008C320.241 190.046 318.596 193.209 315.434 194.728C313.031 195.867 310.121 195.867 307.339 195.614C299.243 194.981 291.274 193.083 283.811 190.045C279.131 188.147 274.578 185.616 271.668 181.947C267.115 176.126 267.621 168.533 268.885 161.699C269.644 157.903 270.656 153.98 273.692 151.07C276.601 148.286 281.029 146.767 285.456 146.64C289.883 146.387 290.515 128.291 294.816 129.557Z" fill="#01384F"/>
    <path d="M258.387 150.563C254.718 145.375 253.201 139.048 254.212 132.974C255.351 127.026 259.019 121.458 264.332 117.788" fill="#01384F"/>
    <path d="M296.461 253.951C296.461 253.951 394.491 240.157 410.682 269.136C426.873 298.115 428.517 380.749 428.517 380.749L406.761 384.546C406.761 384.546 384.498 289.763 373.367 285.587C362.109 281.411 286.468 284.195 286.468 284.195L296.461 253.951Z" fill="#EFC5B4"/>
    <path d="M428.517 380.749C428.517 380.749 450.653 381.509 446.226 383.66C441.799 385.811 407.14 389.481 407.14 389.481L406.761 383.913L428.517 380.749Z" fill="#01384F"/>
    <path d="M360.465 263.442L357.429 248.383C333.269 247.75 307.845 251.8 282.167 257.241L360.465 263.442Z" fill="#07488C"/>
    <path d="M286.721 175.493C286.721 175.493 304.809 174.987 308.224 202.067C313.284 241.17 365.904 221.808 365.904 221.808L381.336 232.312C381.336 232.312 352.117 257.115 313.284 241.17C274.578 225.225 286.721 175.493 286.721 175.493Z" fill="#FACBB6"/>
    <path d="M238.907 202.447L236.378 222.441L230.686 259.772C246.117 267.871 268.506 268.377 290.516 272.173C285.203 253.445 283.432 234.969 291.022 216.62C291.022 216.62 299.244 213.203 295.575 208.521C290.895 202.7 289.883 197.765 289.883 197.765L241.311 196.879" fill="#CDEAFB"/>
    <path d="M279.511 174.101C279.258 171.823 281.156 162.838 281.156 162.838C281.156 162.838 290.895 162.838 292.16 154.613C293.425 146.387 294.564 127.279 294.564 127.279L277.614 118.168L259.273 129.177L256.363 170.684L279.511 174.101Z" fill="#F6B69A"/>
    <path d="M281.155 162.838C281.155 162.838 274.704 162.332 268.759 158.03C268.759 158.03 271.036 164.357 280.776 164.863L281.155 162.838Z" fill="#F19180"/>
    <path d="M231.571 259.772C231.571 259.772 225.373 299.634 264.079 304.696L259.399 257.747L231.571 259.772Z" fill="#07488C"/>
    <path d="M275.843 261.923C275.843 261.923 400.689 256.988 410.808 279.893C420.928 302.797 400.689 392.898 400.689 392.898L376.909 388.722C376.909 388.722 381.209 302.924 375.897 298.874C370.584 294.825 268.759 305.328 260.664 303.43C251.683 301.405 222.969 267.112 275.843 261.923Z" fill="#FACBB6"/>
    <path d="M398.792 390.999C398.792 390.999 419.789 397.58 414.73 398.466C409.67 399.351 376.656 393.91 376.656 393.91V386.064L398.792 390.999Z" fill="#01384F"/>
    <path d="M364.766 222.315L368.434 220.163C368.434 220.163 370.964 219.151 374.758 216.62C375.77 215.987 376.529 215.101 377.288 214.216C378.047 213.077 379.059 211.558 379.312 210.546C379.565 209.28 381.462 209.027 382.095 210.166C382.601 211.179 381.968 214.595 379.059 217.885C376.276 221.049 383.486 219.657 386.016 219.277C388.672 218.771 396.894 217.632 397.653 218.265C398.918 219.151 398.033 220.416 395.376 220.796C392.72 221.176 385.004 222.947 385.384 224.086C385.763 225.225 399.045 222.694 399.045 222.694C399.045 222.694 401.827 221.808 402.333 223.074C403.219 225.605 388.799 227.376 387.408 227.503C386.396 227.629 386.775 228.895 387.787 228.768C388.799 228.642 401.069 225.984 401.954 228.515C402.713 230.413 390.064 230.034 387.914 231.805C385.763 233.577 397.527 231.173 398.033 233.071C398.286 233.704 398.286 234.336 391.329 234.843C384.245 235.349 364.513 234.083 364.513 234.083V222.315" fill="#FACBB6"/>
    <path d="M289.883 199.916V175.999L282.547 173.848L259.525 170.431C259.525 170.431 245.485 168.153 240.172 171.443C234.86 174.733 237.263 202.194 237.263 202.194L289.883 199.916Z" fill="#CDEAFB"/>
    <path d="M251.303 169.545C251.303 169.545 222.084 161.193 220.693 204.725C219.175 249.016 295.828 263.442 295.828 263.442L298.99 247.117C298.99 247.117 244.599 228.642 242.323 209.913C239.919 191.184 251.303 169.545 251.303 169.545Z" fill="#FACBB6"/>
    <path d="M358.947 265.72L393.606 214.342L390.064 212.064L355.026 261.797L302.912 252.939L302.026 255.976L358.947 265.72Z" fill="#A9CCEA"/>
    <path d="M296.967 131.835C296.967 131.835 299.749 118.8 278.752 114.498C257.754 110.322 255.351 132.341 255.351 132.341L267.115 131.455L270.15 126.014L270.024 131.455L278.752 131.708L278.625 127.659L280.776 131.075L296.967 131.835Z" fill="#01384F"/>
    <path d="M297.093 246.991C297.093 246.991 305.695 248.003 310.881 243.068C316.067 238.133 317.205 243.954 311.64 248.383C306.074 252.812 303.544 253.698 303.544 253.698C303.544 253.698 331.246 262.683 325.301 262.429C319.356 262.176 292.034 261.923 292.034 261.923L297.093 246.991Z" fill="#FACBB6"/>
    <path d="M358.061 302.038L366.03 264.454C366.03 264.454 262.055 250.787 246.623 260.784C231.318 270.781 235.871 304.063 263.952 304.696C292.033 305.328 358.061 302.038 358.061 302.038Z" fill="#07488C"/>
    <path d="M205.261 213.963C205.261 213.963 213.23 269.01 224.361 271.667C235.492 274.325 257.628 271.288 266.482 277.741C275.337 284.195 303.924 315.958 303.924 315.958C303.924 315.958 236.631 314.566 210.194 293.433C183.884 272.553 205.261 213.963 205.261 213.963Z" fill="#FBC36B"/>
    <path d="M165.795 253.318H151.502V433.139H165.795V253.318Z" fill="#0E2537"/>
    <path d="M86.9917 253.318H72.6982V433.139H86.9917V253.318Z" fill="#0E2537"/>
    <path d="M518.072 253.318H503.779V433.139H518.072V253.318Z" fill="#0B344C"/>
    <path d="M439.269 253.318H424.975V433.139H439.269V253.318Z" fill="#0B344C"/>
    <path d="M527.939 248.636H62.9585V263.189H527.939V248.636Z" fill="#0B344C"/>
    <path d="M166.302 248.636H62.9585V263.189H166.302V248.636Z" fill="#2A94F4"/>
    <path d="M404.231 247.117H318.723L333.902 202.447H419.536L404.231 247.117Z" fill="#D9D9D9"/>
    <path d="M404.484 246.358H285.203V248.509H404.484V246.358Z" fill="#D9D9D9"/>
    <path d="M376.782 225.984C376.782 228.136 374.632 229.907 371.976 229.907C369.319 229.907 367.169 228.136 367.169 225.984C367.169 223.833 369.319 222.061 371.976 222.061C374.632 222.061 376.782 223.833 376.782 225.984Z" fill="#D9D9D9"/>
    <path d="M432.312 248.509H430.288C426.367 248.509 423.205 245.346 423.205 241.423V231.932H439.395V241.423C439.269 245.346 436.107 248.509 432.312 248.509Z" fill="#FF9431"/>
    <path d="M440.407 242.562C439.648 242.562 439.016 242.435 438.257 242.182L439.142 240.664C441.166 241.423 442.431 240.284 443.19 239.145C444.329 237.247 444.202 235.096 443.443 234.716C441.419 233.704 438.889 235.096 438.889 235.222L437.751 233.83C437.877 233.704 441.293 231.805 444.581 233.324C446.732 234.336 446.605 237.627 445.087 240.031C443.949 241.549 442.305 242.562 440.407 242.562Z" fill="#FF9431"/>
    </svg>
