<svg viewBox="0 0 113 113" fill="none" xmlns="http://www.w3.org/2000/svg">
    <path d="M102.406 17.6562H10.5938C8.64053 17.6562 7.0625 19.2343 7.0625 21.1875V91.8125C7.0625 93.7657 8.64053 95.3438 10.5938 95.3438H102.406C104.359 95.3438 105.938 93.7657 105.938 91.8125V21.1875C105.938 19.2343 104.359 17.6562 102.406 17.6562ZM97.9922 29.8832V87.3984H15.0078V29.8832L11.9621 27.5106L16.2989 21.9379L21.022 25.6126H91.9891L96.7121 21.9379L101.049 27.5106L97.9922 29.8832ZM91.9891 25.6016L56.5 53.1895L21.0109 25.6016L16.2879 21.9269L11.9511 27.4996L14.9968 29.8722L52.6929 59.1815C53.777 60.0238 55.1107 60.4809 56.4834 60.4809C57.8562 60.4809 59.1899 60.0238 60.274 59.1815L97.9922 29.8832L101.038 27.5106L96.7011 21.9379L91.9891 25.6016Z" fill="black"/>
    </svg>
