<svg viewBox="0 0 777 854" fill="none" xmlns="http://www.w3.org/2000/svg">
    <path fill-rule="evenodd" clip-rule="evenodd" d="M561.505 145.696C610.472 189.333 629.203 253.544 653.238 314.83C677.791 377.438 734.357 445.711 702.66 505.621C669.661 567.993 576.161 554.071 511.742 582.269C469.666 600.687 435.106 628.603 391.221 641.947C332.899 659.68 273.365 690.829 215.685 672.289C151.504 651.659 88.4683 604.131 70.4959 538.855C52.7497 474.401 89.0544 405.932 127.055 350.384C157.461 305.937 224.246 305.528 258.523 264.002C308.828 203.058 293.645 88.357 366.974 59.7242C435.18 33.0916 507.254 97.3496 561.505 145.696Z" fill="url(#paint0_linear)"/>
    <defs>
    <linearGradient id="paint0_linear" x1="593.903" y1="155.577" x2="237.537" y2="698.229" gradientUnits="userSpaceOnUse">
    <stop offset="0.40625" stop-color="#FF9431"/>
    <stop offset="1" stop-color="#FFEB3C"/>
    </linearGradient>
    </defs>
    </svg>
