<svg viewBox="0 0 550 506" fill="none" xmlns="http://www.w3.org/2000/svg">
    <path fill-rule="evenodd" clip-rule="evenodd" d="M320.042 -63.6766C367.208 -49.7275 403.149 -16.2702 442.209 13.6223C477.921 40.9531 520.888 62.5641 538.861 103.787C556.726 144.762 547.949 191.417 538.805 235.172C530.123 276.714 507.506 311.436 487.628 348.933C461.557 398.112 452.85 462.912 403.963 489.527C354.176 516.633 290.84 504.08 237.403 485.16C185.588 466.815 149.248 424.236 110.221 385.529C67.9752 343.63 1.6493 309.207 0.0251502 249.73C-1.62662 189.24 78.5503 159.942 102.544 104.39C127.359 46.9355 91.0153 -37.3278 140.538 -75.5953C188.969 -113.02 261.349 -81.0348 320.042 -63.6766Z" fill="url(#paint0_linear)"/>
    <defs>
    <linearGradient id="paint0_linear" x1="274.61" y1="-93" x2="274.61" y2="505.163" gradientUnits="userSpaceOnUse">
    <stop offset="0.536458" stop-color="#FF9431"/>
    <stop offset="1" stop-color="#FFEC3C"/>
    </linearGradient>
    </defs>
    </svg>
